<svg width="1024" height="1024" viewBox="0 0 1024 1024" fill="none" xmlns="http://www.w3.org/2000/svg">
<rect width="1024" height="1024" fill="white"/>
<path d="M725.334 512C725.334 469.807 712.822 428.561 689.381 393.478C665.939 358.396 632.621 331.052 593.64 314.906C554.658 298.759 511.764 294.534 470.381 302.766C428.998 310.997 390.986 331.315 361.151 361.151C331.316 390.986 310.998 428.998 302.766 470.381C294.535 511.763 298.759 554.658 314.906 593.639C331.053 632.621 358.396 665.939 393.479 689.38C428.561 712.822 469.807 725.333 512 725.333" stroke="#28F9C7" stroke-width="40" stroke-linecap="round" stroke-linejoin="round"/>
<path d="M469.333 128H554.666M512 298.667V128V298.667Z" stroke="#28F9C7" stroke-width="40" stroke-linecap="round" stroke-linejoin="round"/>
<path d="M753.366 210.304L813.696 270.635M662.87 361.131L783.531 240.469L662.87 361.131Z" stroke="#28F9C7" stroke-width="40" stroke-linecap="round" stroke-linejoin="round"/>
<path d="M896 469.333V554.667M725.333 512H896H725.333Z" stroke="#28F9C7" stroke-width="40" stroke-linecap="round" stroke-linejoin="round"/>
<path d="M554.666 896H469.333M512 725.333V896V725.333Z" stroke="#28F9C7" stroke-width="40" stroke-linecap="round" stroke-linejoin="round"/>
<path d="M270.634 813.696L210.346 753.365M361.13 662.869L240.469 783.531L361.13 662.869Z" stroke="#28F9C7" stroke-width="40" stroke-linecap="round" stroke-linejoin="round"/>
<path d="M128 554.667V469.333M298.667 512H128H298.667Z" stroke="#28F9C7" stroke-width="40" stroke-linecap="round" stroke-linejoin="round"/>
<path d="M210.303 270.634L270.634 210.346M361.13 361.13L240.469 240.469L361.13 361.13Z" stroke="#28F9C7" stroke-width="40" stroke-linecap="round" stroke-linejoin="round"/>
<path d="M811 816H816V811V509V504H811H512H507V509V811V816H512H811ZM794.885 792.926H528.115V527.074H794.885V792.926Z" fill="#28F9C7" stroke="#28F9C7" stroke-width="10"/>
<mask id="path-10-inside-1" fill="white">
<path d="M512 522.054H811V546.858H512V522.054Z"/>
</mask>
<path d="M512 522.054H811V546.858H512V522.054Z" fill="#28F9C7"/>
<path d="M512 522.054V472.054H462V522.054H512ZM811 522.054H861V472.054H811V522.054ZM811 546.858V596.858H861V546.858H811ZM512 546.858H462V596.858H512V546.858ZM512 572.054H811V472.054H512V572.054ZM761 522.054V546.858H861V522.054H761ZM811 496.858H512V596.858H811V496.858ZM562 546.858V522.054H462V546.858H562Z" fill="#28F9C7" mask="url(#path-10-inside-1)"/>
<mask id="path-12-inside-2" fill="white">
<path d="M610.181 574.272H700.959V587.326H610.181V574.272Z"/>
</mask>
<path d="M610.181 574.272H700.959V587.326H610.181V574.272Z" fill="#28F9C7"/>
<path d="M610.181 574.272V524.272H560.181V574.272H610.181ZM700.959 574.272H750.959V524.272H700.959V574.272ZM700.959 587.326V637.326H750.959V587.326H700.959ZM610.181 587.326H560.181V637.326H610.181V587.326ZM610.181 624.272H700.959V524.272H610.181V624.272ZM650.959 574.272V587.326H750.959V574.272H650.959ZM700.959 537.326H610.181V637.326H700.959V537.326ZM660.181 587.326V574.272H560.181V587.326H660.181Z" fill="#28F9C7" mask="url(#path-12-inside-2)"/>
<mask id="path-14-inside-3" fill="white">
<path d="M610.181 607.991H749.121V621.046H610.181V607.991Z"/>
</mask>
<path d="M610.181 607.991H749.121V621.046H610.181V607.991Z" fill="#28F9C7"/>
<path d="M610.181 607.991V557.991H560.181V607.991H610.181ZM749.121 607.991H799.121V557.991H749.121V607.991ZM749.121 621.046V671.046H799.121V621.046H749.121ZM610.181 621.046H560.181V671.046H610.181V621.046ZM610.181 657.991H749.121V557.991H610.181V657.991ZM699.121 607.991V621.046H799.121V607.991H699.121ZM749.121 571.046H610.181V671.046H749.121V571.046ZM660.181 621.046V607.991H560.181V621.046H660.181Z" fill="#28F9C7" mask="url(#path-14-inside-3)"/>
<mask id="path-16-inside-4" fill="white">
<path d="M610.181 642.807H728.191V655.862H610.181V642.807Z"/>
</mask>
<path d="M610.181 642.807H728.191V655.862H610.181V642.807Z" fill="#28F9C7"/>
<path d="M610.181 642.807V592.807H560.181V642.807H610.181ZM728.191 642.807H778.191V592.807H728.191V642.807ZM728.191 655.862V705.862H778.191V655.862H728.191ZM610.181 655.862H560.181V705.862H610.181V655.862ZM610.181 692.807H728.191V592.807H610.181V692.807ZM678.191 642.807V655.862H778.191V642.807H678.191ZM728.191 605.862H610.181V705.862H728.191V605.862ZM660.181 655.862V642.807H560.181V655.862H660.181Z" fill="#28F9C7" mask="url(#path-16-inside-4)"/>
<mask id="path-18-inside-5" fill="white">
<path d="M610.181 679.791H767.65V692.845H610.181V679.791Z"/>
</mask>
<path d="M610.181 679.791H767.65V692.845H610.181V679.791Z" fill="#28F9C7"/>
<path d="M610.181 679.791V629.791H560.181V679.791H610.181ZM767.65 679.791H817.65V629.791H767.65V679.791ZM767.65 692.845V742.845H817.65V692.845H767.65ZM610.181 692.845H560.181V742.845H610.181V692.845ZM610.181 729.791H767.65V629.791H610.181V729.791ZM717.65 679.791V692.845H817.65V679.791H717.65ZM767.65 642.845H610.181V742.845H767.65V642.845ZM660.181 692.845V679.791H560.181V692.845H660.181Z" fill="#28F9C7" mask="url(#path-18-inside-5)"/>
<mask id="path-20-inside-6" fill="white">
<path d="M610.181 717.87H719.488V730.924H610.181V717.87Z"/>
</mask>
<path d="M610.181 717.87H719.488V730.924H610.181V717.87Z" fill="#28F9C7"/>
<path d="M610.181 717.87V667.87H560.181V717.87H610.181ZM719.488 717.87H769.488V667.87H719.488V717.87ZM719.488 730.924V780.924H769.488V730.924H719.488ZM610.181 730.924H560.181V780.924H610.181V730.924ZM610.181 767.87H719.488V667.87H610.181V767.87ZM669.488 717.87V730.924H769.488V717.87H669.488ZM719.488 680.924H610.181V780.924H719.488V680.924ZM660.181 730.924V717.87H560.181V730.924H660.181Z" fill="#28F9C7" mask="url(#path-20-inside-6)"/>
<mask id="path-22-inside-7" fill="white">
<path d="M612.037 751.59H747.276V764.644H612.037V751.59Z"/>
</mask>
<path d="M612.037 751.59H747.276V764.644H612.037V751.59Z" fill="#28F9C7"/>
<path d="M612.037 751.59V701.59H562.037V751.59H612.037ZM747.276 751.59H797.276V701.59H747.276V751.59ZM747.276 764.644V814.644H797.276V764.644H747.276ZM612.037 764.644H562.037V814.644H612.037V764.644ZM612.037 801.59H747.276V701.59H612.037V801.59ZM697.276 751.59V764.644H797.276V751.59H697.276ZM747.276 714.644H612.037V814.644H747.276V714.644ZM662.037 764.644V751.59H562.037V764.644H662.037Z" fill="#28F9C7" mask="url(#path-22-inside-7)"/>
<mask id="path-24-inside-8" fill="white">
<path d="M545.346 574.272H593.508V587.326H545.346V574.272Z"/>
</mask>
<path d="M545.346 574.272H593.508V587.326H545.346V574.272Z" fill="#28F9C7"/>
<path d="M545.346 574.272V524.272H495.346V574.272H545.346ZM593.508 574.272H643.508V524.272H593.508V574.272ZM593.508 587.326V637.326H643.508V587.326H593.508ZM545.346 587.326H495.346V637.326H545.346V587.326ZM545.346 624.272H593.508V524.272H545.346V624.272ZM543.508 574.272V587.326H643.508V574.272H543.508ZM593.508 537.326H545.346V637.326H593.508V537.326ZM595.346 587.326V574.272H495.346V587.326H595.346Z" fill="#28F9C7" mask="url(#path-24-inside-8)"/>
<mask id="path-26-inside-9" fill="white">
<path d="M545.346 607.991H593.508V621.046H545.346V607.991Z"/>
</mask>
<path d="M545.346 607.991H593.508V621.046H545.346V607.991Z" fill="#28F9C7"/>
<path d="M545.346 607.991V557.991H495.346V607.991H545.346ZM593.508 607.991H643.508V557.991H593.508V607.991ZM593.508 621.046V671.046H643.508V621.046H593.508ZM545.346 621.046H495.346V671.046H545.346V621.046ZM545.346 657.991H593.508V557.991H545.346V657.991ZM543.508 607.991V621.046H643.508V607.991H543.508ZM593.508 571.046H545.346V671.046H593.508V571.046ZM595.346 621.046V607.991H495.346V621.046H595.346Z" fill="#28F9C7" mask="url(#path-26-inside-9)"/>
<mask id="path-28-inside-10" fill="white">
<path d="M545.346 607.991H593.508V621.046H545.346V607.991Z"/>
</mask>
<path d="M545.346 607.991H593.508V621.046H545.346V607.991Z" fill="#28F9C7"/>
<path d="M545.346 607.991V557.991H495.346V607.991H545.346ZM593.508 607.991H643.508V557.991H593.508V607.991ZM593.508 621.046V671.046H643.508V621.046H593.508ZM545.346 621.046H495.346V671.046H545.346V621.046ZM545.346 657.991H593.508V557.991H545.346V657.991ZM543.508 607.991V621.046H643.508V607.991H543.508ZM593.508 571.046H545.346V671.046H593.508V571.046ZM595.346 621.046V607.991H495.346V621.046H595.346Z" fill="#28F9C7" mask="url(#path-28-inside-10)"/>
<mask id="path-30-inside-11" fill="white">
<path d="M545.346 641.724H593.508V654.778H545.346V641.724Z"/>
</mask>
<path d="M545.346 641.724H593.508V654.778H545.346V641.724Z" fill="#28F9C7"/>
<path d="M545.346 641.724V591.724H495.346V641.724H545.346ZM593.508 641.724H643.508V591.724H593.508V641.724ZM593.508 654.778V704.778H643.508V654.778H593.508ZM545.346 654.778H495.346V704.778H545.346V654.778ZM545.346 691.724H593.508V591.724H545.346V691.724ZM543.508 641.724V654.778H643.508V641.724H543.508ZM593.508 604.778H545.346V704.778H593.508V604.778ZM595.346 654.778V641.724H495.346V654.778H595.346Z" fill="#28F9C7" mask="url(#path-30-inside-11)"/>
<mask id="path-32-inside-12" fill="white">
<path d="M545.346 675.443H593.508V688.498H545.346V675.443Z"/>
</mask>
<path d="M545.346 675.443H593.508V688.498H545.346V675.443Z" fill="#28F9C7"/>
<path d="M545.346 675.443V625.443H495.346V675.443H545.346ZM593.508 675.443H643.508V625.443H593.508V675.443ZM593.508 688.498V738.498H643.508V688.498H593.508ZM545.346 688.498H495.346V738.498H545.346V688.498ZM545.346 725.443H593.508V625.443H545.346V725.443ZM543.508 675.443V688.498H643.508V675.443H543.508ZM593.508 638.498H545.346V738.498H593.508V638.498ZM595.346 688.498V675.443H495.346V688.498H595.346Z" fill="#28F9C7" mask="url(#path-32-inside-12)"/>
<mask id="path-34-inside-13" fill="white">
<path d="M545.346 717.87H593.508V730.924H545.346V717.87Z"/>
</mask>
<path d="M545.346 717.87H593.508V730.924H545.346V717.87Z" fill="#28F9C7"/>
<path d="M545.346 717.87V667.87H495.346V717.87H545.346ZM593.508 717.87H643.508V667.87H593.508V717.87ZM593.508 730.924V780.924H643.508V730.924H593.508ZM545.346 730.924H495.346V780.924H545.346V730.924ZM545.346 767.87H593.508V667.87H545.346V767.87ZM543.508 717.87V730.924H643.508V717.87H543.508ZM593.508 680.924H545.346V780.924H593.508V680.924ZM595.346 730.924V717.87H495.346V730.924H595.346Z" fill="#28F9C7" mask="url(#path-34-inside-13)"/>
<mask id="path-36-inside-14" fill="white">
<path d="M545.346 751.59H593.508V764.644H545.346V751.59Z"/>
</mask>
<path d="M545.346 751.59H593.508V764.644H545.346V751.59Z" fill="#28F9C7"/>
<path d="M545.346 751.59V701.59H495.346V751.59H545.346ZM593.508 751.59H643.508V701.59H593.508V751.59ZM593.508 764.644V814.644H643.508V764.644H593.508ZM545.346 764.644H495.346V814.644H545.346V764.644ZM545.346 801.59H593.508V701.59H545.346V801.59ZM543.508 751.59V764.644H643.508V751.59H543.508ZM593.508 714.644H545.346V814.644H593.508V714.644ZM595.346 764.644V751.59H495.346V764.644H595.346Z" fill="#28F9C7" mask="url(#path-36-inside-14)"/>
</svg>
