<svg width="250" height="215" viewBox="0 0 250 215" fill="none" xmlns="http://www.w3.org/2000/svg">
<g clip-path="url(#clip0)">
<path d="M33.9996 144.49C48.492 144.49 60.2405 120.518 60.2405 90.9475C60.2405 61.377 48.492 37.4054 33.9996 37.4054C19.5071 37.4054 7.75864 61.377 7.75864 90.9475C7.75864 120.518 19.5071 144.49 33.9996 144.49Z" fill="#28F9C7"/>
<path d="M33.7587 91.5029C35.0676 68.1964 37.705 52.4536 37.7315 52.2973L37.1592 52.2003C37.1327 52.3568 34.4907 68.1248 33.1796 91.4614C31.9697 113 31.6778 145.578 37.1591 178.465L37.7316 178.37C32.2597 145.538 32.5509 113.01 33.7587 91.5029Z" fill="#3F3D56"/>
<path d="M57.4529 80.0893L33.727 92.7881L34.0009 93.2999L57.7269 80.6011L57.4529 80.0893Z" fill="#3F3D56"/>
<path d="M8.95405 86.4539L8.68027 86.9657L32.4096 99.6582L32.6834 99.1463L8.95405 86.4539Z" fill="#3F3D56"/>
<path d="M215.957 138.924C234.758 138.924 250 107.824 250 69.4618C250 31.0991 234.758 0 215.957 0C197.155 0 181.914 31.0991 181.914 69.4618C181.914 107.824 197.155 138.924 215.957 138.924Z" fill="#28F9C7"/>
<path d="M215.543 70.1734C217.242 39.9322 220.664 19.5055 220.698 19.3027L220.156 19.2108C220.121 19.4138 216.695 39.8644 214.994 70.134C213.425 98.0712 213.046 140.328 220.156 182.984L220.698 182.894C213.598 140.29 213.976 98.0806 215.543 70.1734Z" fill="#3F3D56"/>
<path d="M246.431 55.4643L215.651 71.939L215.911 72.4242L246.691 55.9495L246.431 55.4643Z" fill="#3F3D56"/>
<path d="M183.417 63.7214L183.157 64.2066L213.942 80.6729L214.202 80.1877L183.417 63.7214Z" fill="#3F3D56"/>
<path d="M174.94 157.737C181.965 157.737 187.66 146.117 187.66 131.784C187.66 117.451 181.965 105.831 174.94 105.831C167.916 105.831 162.221 117.451 162.221 131.784C162.221 146.117 167.916 157.737 174.94 157.737Z" fill="#E6E6E6"/>
<path d="M174.929 132.902L175.005 133.043L186.505 126.887L186.245 126.402L174.953 132.446C175.578 120.945 176.856 113.224 176.882 113.072L176.339 112.98C176.311 113.146 174.793 122.315 174.254 135.582L162.865 129.486L162.605 129.971L174.106 136.126L174.243 135.87C173.812 146.82 174.053 160.511 176.339 174.227L176.882 174.137C174.39 159.182 174.335 144.256 174.929 132.902Z" fill="#3F3D56"/>
<path d="M239.389 188.683C171.64 167.236 110.207 168.379 70.602 173.114C27.6944 178.244 0.467392 188.574 0.197489 188.677L0 188.164C0.270709 188.06 27.5618 177.705 70.5367 172.567C95.8154 169.549 121.321 168.896 146.721 170.618C178.253 172.753 209.418 178.641 239.555 188.158L239.389 188.683Z" fill="#3F3D56"/>
<path d="M87.0856 182.622C87.0856 182.622 87.2756 178.64 91.1706 179.103Z" fill="#3F3D56"/>
<path d="M85.985 178.833C87.0616 178.833 87.9344 177.96 87.9344 176.883C87.9344 175.807 87.0616 174.934 85.985 174.934C84.9083 174.934 84.0355 175.807 84.0355 176.883C84.0355 177.96 84.9083 178.833 85.985 178.833Z" fill="#28F9C7"/>
<path d="M86.2181 180.166H85.6678V184.018H86.2181V180.166Z" fill="#3F3D56"/>
<path d="M158.072 183.447C158.072 183.447 158.262 179.466 162.157 179.928Z" fill="#3F3D56"/>
<path d="M156.971 179.658C158.048 179.658 158.921 178.786 158.921 177.709C158.921 176.632 158.048 175.759 156.971 175.759C155.895 175.759 155.022 176.632 155.022 177.709C155.022 178.786 155.895 179.658 156.971 179.658Z" fill="#28F9C7"/>
<path d="M157.205 180.992H156.654V184.844H157.205V180.992Z" fill="#3F3D56"/>
<path d="M41.1369 176.568C41.1369 176.568 41.3269 172.587 45.222 173.05Z" fill="#3F3D56"/>
<path d="M40.0363 172.78C41.113 172.78 41.9858 171.907 41.9858 170.83C41.9858 169.754 41.113 168.881 40.0363 168.881C38.9597 168.881 38.0869 169.754 38.0869 170.83C38.0869 171.907 38.9597 172.78 40.0363 172.78Z" fill="#28F9C7"/>
<path d="M40.2694 174.113H39.7191V177.965H40.2694V174.113Z" fill="#3F3D56"/>
<path d="M71.1273 171.341C71.1273 171.341 71.3173 167.359 75.2124 167.822Z" fill="#3F3D56"/>
<path d="M70.0268 167.552C71.1034 167.552 71.9762 166.679 71.9762 165.603C71.9762 164.526 71.1034 163.653 70.0268 163.653C68.9501 163.653 68.0773 164.526 68.0773 165.603C68.0773 166.679 68.9501 167.552 70.0268 167.552Z" fill="#28F9C7"/>
<path d="M70.2598 168.885H69.7096V172.737H70.2598V168.885Z" fill="#3F3D56"/>
<path d="M146.241 178.77C146.241 178.77 146.431 174.788 150.326 175.251Z" fill="#3F3D56"/>
<path d="M145.14 174.981C146.217 174.981 147.09 174.108 147.09 173.031C147.09 171.955 146.217 171.082 145.14 171.082C144.064 171.082 143.191 171.955 143.191 173.031C143.191 174.108 144.064 174.981 145.14 174.981Z" fill="#28F9C7"/>
<path d="M145.373 176.314H144.823V180.166H145.373V176.314Z" fill="#3F3D56"/>
<path d="M230.848 170.788L242.172 187.58L231.629 198.123L230.262 195.39L232.605 189.923C232.605 189.923 232.214 184.846 230.848 183.48C229.481 182.113 223.428 173.912 223.428 173.912L230.848 170.788Z" fill="#FFB8B8"/>
<path d="M216.399 116.51C216.399 116.51 218.547 119.908 214.056 134.552C214.056 134.552 235.002 169.904 231.683 172.247C228.364 174.59 219.382 179.775 217.039 178.213C214.696 176.651 197.655 123.734 197.655 123.734L216.399 116.51Z" fill="#2F2E41"/>
<path d="M240.122 184.553L243.539 187.97C245.296 189.728 246.467 192.266 243.148 194.413C239.829 196.561 228.309 204.566 224.404 202.028C220.499 199.49 229.09 197.147 229.09 197.147C229.09 197.147 230.511 191.88 231.265 193.049C232.019 194.218 232.019 196.561 232.019 196.561L240.122 184.553Z" fill="#2F2E41"/>
<path d="M198.827 179.965C198.827 179.965 192.579 191.485 192.579 192.851C192.579 194.218 192.97 198.123 192.97 198.123L181.059 201.052L176.959 199.099L178.326 195.585C178.326 195.585 185.745 193.047 187.307 188.166C188.869 183.284 190.627 178.208 190.627 178.208L198.827 179.965Z" fill="#FFB8B8"/>
<path d="M206.051 65.3549C210.58 65.3549 214.251 61.6834 214.251 57.1545C214.251 52.6255 210.58 48.9541 206.051 48.9541C201.522 48.9541 197.851 52.6255 197.851 57.1545C197.851 61.6834 201.522 65.3549 206.051 65.3549Z" fill="#FFB8B8"/>
<path d="M203.903 64.1834L207.818 75.4325L216.399 71.6028C216.399 71.6028 210.542 62.6214 210.542 61.4499L203.903 64.1834Z" fill="#FFB8B8"/>
<path d="M202.732 104.209H213.08C213.08 104.209 220.499 115.533 216.204 127.444C215.546 129.267 214.893 131.822 214.241 134.843C212.743 141.789 211.25 151.199 209.721 159.845C207.573 171.991 205.352 182.63 202.937 182.824C198.056 183.214 188.564 183.149 188.564 181.197C188.564 179.244 194.922 122.758 194.922 122.758L196.289 120.415L196.547 110.209C196.588 108.598 197.258 107.068 198.415 105.946C199.571 104.825 201.121 104.201 202.732 104.209V104.209Z" fill="#2F2E41"/>
<path d="M192.481 192.754C192.481 192.754 194.727 196.561 194.141 199.295C193.555 202.028 192.579 201.638 188.284 202.028C183.988 202.419 169.345 202.419 169.345 199.685C169.345 196.952 180.768 193.402 180.816 194.493C180.864 195.585 181.255 197.733 180.083 198.123C178.912 198.514 179.986 198.221 179.986 198.221L192.481 192.754Z" fill="#2F2E41"/>
<path d="M203.905 128.579C203.905 128.579 203.056 142.449 197.391 138.32C191.726 134.191 199.598 126.732 199.598 126.732L203.905 128.579Z" fill="white"/>
<path d="M215.211 110.313C215.484 110.435 215.784 110.482 216.081 110.447C216.377 110.411 216.659 110.296 216.895 110.113C217.237 109.844 217.466 109.456 217.533 109.025C218.352 104.304 219.35 91.2143 219.924 84.5954C220.645 76.29 217.045 69.8572 217.015 69.8181L214.893 66.9011C214.673 66.5963 214.356 66.3751 213.994 66.2735C213.632 66.1718 213.246 66.1958 212.899 66.3414C212.899 66.3414 206.276 73.2129 206.251 73.4782C206.148 74.6175 205.359 77.1421 201.251 81.2507C196.755 85.7462 196.73 89.6697 196.83 90.7652C196.836 90.8373 196.84 90.9092 196.84 90.9811C196.831 91.4726 196.898 91.9625 197.038 92.4337C198.921 98.3701 197.446 105.477 195.078 112.896C194.989 113.231 195.005 113.586 195.126 113.911C195.247 114.236 195.466 114.516 195.753 114.711C196.444 115.182 195.615 114.484 195.862 114.786C197.494 116.786 199.842 113.999 202.528 110.958C203.464 109.898 204.525 108.697 205.775 107.447C207.494 105.729 210.778 109.651 212.305 109.651C213.309 109.663 214.3 109.889 215.211 110.313V110.313Z" fill="#575A89"/>
<path d="M216.122 72.8467C216.122 72.8467 220.411 76.4639 217.974 81.1549C215.538 85.8459 215.861 89.3058 215.861 89.3058C215.861 89.3058 215.213 121.532 207.599 119.966L204.136 129.528L197.881 127.27L201.498 118.836C201.498 118.836 198.601 118.656 199.447 116.682C200.042 115.296 203.245 100.251 205.099 91.4184C205.885 87.6753 206.428 85.0477 206.428 85.0477C206.428 85.0477 208.892 71.8708 216.122 72.8467Z" fill="#575A89"/>
<path opacity="0.2" d="M217.021 89.2232L214.61 105.046L215.911 88.127L217.021 89.2232Z" fill="black"/>
<path d="M197.104 53.5211C197.104 53.5211 195.726 42.7919 206.974 46.3102C206.974 46.3102 215.008 44.8361 217.643 54.8854L220.311 65.4195L219.011 64.7118L218.404 66.0367L216.298 66.5703L215.396 64.7809L214.96 66.9539L197.704 68.6742C197.704 68.6742 205.433 64.1035 205.555 55.9118L204.083 57.4675L197.104 53.5211Z" fill="#2F2E41"/>
<path opacity="0.2" d="M209.937 160.462L213.785 134.823L210.655 162.502L209.937 160.462Z" fill="black"/>
<path d="M216.225 50.7543C218.622 50.7543 220.564 48.8116 220.564 46.4153C220.564 44.0189 218.622 42.0762 216.225 42.0762C213.829 42.0762 211.886 44.0189 211.886 46.4153C211.886 48.8116 213.829 50.7543 216.225 50.7543Z" fill="#2F2E41"/>
<path d="M211.754 45.353C211.826 44.2521 212.314 43.2198 213.12 42.4664C213.925 41.7129 214.988 41.2949 216.091 41.2976C216.002 41.2862 215.913 41.2724 215.822 41.2665C215.253 41.2296 214.682 41.3052 214.143 41.4889C213.603 41.6726 213.105 41.9608 212.677 42.337C212.249 42.7133 211.899 43.1702 211.647 43.6817C211.396 44.1932 211.247 44.7492 211.211 45.3181C211.174 45.8869 211.25 46.4574 211.434 46.9969C211.618 47.5364 211.906 48.0343 212.283 48.4623C212.659 48.8903 213.117 49.2399 213.628 49.4912C214.14 49.7424 214.696 49.8904 215.265 49.9267C215.356 49.9326 215.446 49.9302 215.536 49.9304C214.442 49.7918 213.441 49.2412 212.739 48.3907C212.036 47.5403 211.684 46.454 211.754 45.353V45.353Z" fill="#2F2E41"/>
<path opacity="0.2" d="M203.843 94.154L200.025 114.615L204.973 92.0156L203.843 94.154Z" fill="black"/>
<path d="M204.081 63.064L201.856 64.7415C199.564 63.5884 197.846 60.9203 197.221 58.3737L199.646 57.1503C199.836 59.7477 201.68 61.4745 204.081 63.064Z" fill="white"/>
<path d="M205.005 57.5199H199.461C199.412 57.5199 199.365 57.5005 199.33 57.4658C199.295 57.4311 199.276 57.3841 199.276 57.3351C199.276 57.2861 199.295 57.2391 199.33 57.2044C199.365 57.1698 199.412 57.1503 199.461 57.1503H205.005C205.054 57.1503 205.101 57.1698 205.135 57.2044C205.17 57.2391 205.19 57.2861 205.19 57.3351C205.19 57.3841 205.17 57.4311 205.135 57.4658C205.101 57.5005 205.054 57.5199 205.005 57.5199V57.5199Z" fill="white"/>
<path d="M203.896 63.064C203.866 63.064 203.836 63.0566 203.809 63.0424C203.783 63.0283 203.76 63.0078 203.743 62.9828C203.726 62.9578 203.716 62.929 203.712 62.899C203.709 62.869 203.713 62.8386 203.725 62.8106L205.203 59.1146C205.212 59.092 205.225 59.0714 205.242 59.0539C205.259 59.0365 205.279 59.0226 205.302 59.013C205.324 59.0034 205.348 58.9982 205.372 58.9979C205.397 58.9976 205.421 59.0021 205.443 59.0111C205.466 59.0201 205.486 59.0335 205.504 59.0505C205.521 59.0675 205.535 59.0878 205.544 59.1101C205.554 59.1325 205.559 59.1565 205.559 59.1808C205.56 59.2051 205.555 59.2292 205.546 59.2517L204.067 62.9478C204.054 62.9821 204.03 63.0115 204 63.0322C203.969 63.0529 203.933 63.064 203.896 63.064V63.064Z" fill="white"/>
<path d="M205.378 59.7036C206.127 59.7036 206.734 58.8536 206.734 57.8052C206.734 56.7568 206.127 55.9069 205.378 55.9069C204.629 55.9069 204.022 56.7568 204.022 57.8052C204.022 58.8536 204.629 59.7036 205.378 59.7036Z" fill="#FFB8B8"/>
<path d="M109.834 63.5236L124.275 66.8283L130.377 55.3205L118.029 50.4995L109.834 63.5236Z" fill="#2F2E41"/>
<path d="M117.507 125.472C117.507 125.472 112.865 136.11 112.865 139.205C112.865 139.205 114.702 147.619 114.122 149.94L112.091 154.291L107.836 152.551L106.675 140.946L106.869 122.377L117.507 125.472Z" fill="#FFB9B9"/>
<path d="M120.118 61.8369C120.118 61.8369 120.505 68.2198 119.731 70.154C118.957 72.0882 122.632 75.7632 122.632 75.7632L128.435 68.2198C128.435 68.2198 124.566 64.3514 125.534 60.0962L120.118 61.8369Z" fill="#FFB9B9"/>
<path d="M108.029 106.033C108.029 106.033 102.42 116.478 107.836 115.704C113.251 114.931 111.414 105.743 111.414 105.743" fill="#E6E6E6"/>
<path d="M111.414 105.743L113.251 87.465L113.155 76.3435L108.899 77.117V87.3682L108.029 106.033" fill="#FFB9B9"/>
<path d="M106.772 151.197L115.089 147.909L116.056 164.349C116.056 164.349 117.797 169.378 117.217 171.312C117.217 171.312 117.603 174.601 116.636 174.794C115.669 174.987 112.961 175.374 112.768 175.181C112.574 174.987 112.574 174.407 112.574 174.407C112.574 174.407 110.64 175.761 110.447 177.308C110.447 177.308 102.323 179.823 102.13 177.502C101.936 175.181 106.192 173.247 106.192 173.247L109.48 168.218L106.772 151.197Z" fill="#2F2E41"/>
<path d="M134.818 125.472C134.818 125.472 130.176 136.11 130.176 139.205C130.176 139.205 132.013 147.619 131.433 149.94L129.402 154.291L125.147 152.551L123.986 140.946L124.18 122.377L134.818 125.472Z" fill="#FFB9B9"/>
<path d="M124.373 151.197L132.69 147.909L133.657 164.349C133.657 164.349 135.398 169.378 134.818 171.312C134.818 171.312 135.205 174.601 134.237 174.794C133.27 174.987 130.562 175.374 130.369 175.181C130.176 174.987 130.176 174.407 130.176 174.407C130.176 174.407 128.241 175.761 128.048 177.308C128.048 177.308 119.924 179.823 119.731 177.502C119.538 175.181 123.793 173.247 123.793 173.247L127.081 168.218L124.373 151.197Z" fill="#2F2E41"/>
<path d="M128.243 57.3892C128.242 58.9124 127.68 60.3819 126.664 61.5165C125.647 62.6511 124.248 63.3711 122.734 63.5387C121.22 63.7064 119.698 63.3099 118.458 62.4252C117.218 61.5405 116.348 60.2296 116.014 58.7434C115.912 58.2993 115.861 57.8449 115.862 57.3892C115.863 55.7482 116.516 54.1747 117.677 53.0147C118.838 51.8547 120.411 51.2031 122.053 51.2031C123.694 51.2031 125.267 51.8547 126.428 53.0147C127.589 54.1747 128.242 55.7482 128.243 57.3892V57.3892Z" fill="#FFB9B9"/>
<path d="M122.826 69.7671L127.629 67.2729L129.789 68.9935C129.789 68.9935 135.011 68.8 136.945 71.1211C138.88 73.4421 139.943 79.3414 139.943 79.3414C139.943 79.3414 133.56 77.9875 134.334 83.4032L133.174 80.3085L132.11 82.9197L119.151 87.3683L113.348 77.5039C113.348 77.5039 109.48 76.3434 108.126 79.0513C108.126 79.0513 108.416 69.2836 112.188 68.9935C114.724 68.7984 116.636 68.8001 116.636 68.8001L118.764 68.4132L120.126 67.9297L122.826 69.7671Z" fill="#575A89"/>
<path d="M131.046 90.9466C131.046 90.9466 141.201 121.41 138.299 125.665C138.299 125.665 127.468 131.081 105.805 123.731L114.605 89.5927C120.011 88.4871 125.491 88.9384 131.046 90.9466Z" fill="#2F2E41"/>
<path d="M131.046 90.9466L133.904 81.1256C130.476 77.3973 133.435 69.1301 133.435 69.1301L129.298 68.2436C129.298 68.2436 125.147 79.4381 120.892 78.0842C116.636 76.7303 118.957 68.0264 118.957 68.0264L115.089 68.4132L113.348 75.1829L114.605 89.5927C119.849 89.1429 125.348 89.6663 131.046 90.9466Z" fill="#575A89"/>
<path d="M136.075 105.743L137.429 87.3682L137.816 76.3435L133.561 77.117V87.3682L132.69 106.033" fill="#FFB9B9"/>
<path d="M132.69 106.033C132.69 106.033 127.081 116.478 132.497 115.704C137.912 114.931 136.075 105.743 136.075 105.743" fill="white"/>
<path d="M139.943 79.3414C139.943 79.3414 139.256 69.4082 133.507 69.4426V80.9299C133.507 80.9299 137.816 78.3743 139.943 79.3414Z" fill="#575A89"/>
<path d="M124.032 58.9865C123.999 58.9865 123.967 58.9764 123.94 58.9574C123.914 58.9385 123.894 58.9118 123.883 58.8809C123.872 58.85 123.871 58.8165 123.88 58.7851C123.889 58.7536 123.908 58.7258 123.933 58.7053L127.09 56.18C127.106 56.1669 127.125 56.1571 127.145 56.1512C127.164 56.1453 127.185 56.1434 127.206 56.1457C127.227 56.1479 127.247 56.1542 127.265 56.1642C127.283 56.1742 127.3 56.1878 127.313 56.204C127.326 56.2203 127.335 56.239 127.341 56.259C127.347 56.279 127.348 56.2999 127.346 56.3206C127.344 56.3413 127.337 56.3613 127.327 56.3795C127.317 56.3977 127.303 56.4137 127.287 56.4266L124.13 58.952C124.102 58.9743 124.068 58.9865 124.032 58.9865Z" fill="white"/>
<path d="M124.271 62.7745C124.201 62.8597 124.132 62.945 124.059 63.0239C123.222 63.4036 122.31 63.592 121.39 63.5753C120.471 63.5586 119.567 63.3372 118.744 62.9273C117.92 62.5173 117.199 61.9291 116.632 61.2054C116.064 60.4817 115.665 59.6407 115.464 58.7434L118.455 58.1931L124.271 58.7434C122.939 60.366 123.1 60.9278 124.271 62.7745Z" fill="white"/>
<path d="M118.557 48.7251C118.557 48.7251 115.358 49.3269 114.619 53.3167C114.503 53.9895 114.482 54.6752 114.556 55.3539C114.63 56.1219 114.523 57.744 112.855 59.654C111.767 60.8928 110.753 62.1949 109.819 63.5534V63.5534L113.161 64.4433L114.655 58.905C115.379 56.2199 116.495 53.6561 117.966 51.296L117.996 51.2467C117.996 51.2467 119.106 54.2132 122.082 54.6199L121.165 53.4119C121.165 53.4119 124.643 55.4228 126.614 56.0371C126.839 56.1072 127.041 56.2374 127.197 56.4136C127.353 56.5898 127.459 56.8053 127.502 57.037C127.545 57.2686 127.524 57.5076 127.441 57.7282C127.358 57.9488 127.217 58.1426 127.032 58.2888C127.018 58.2998 127.004 58.3108 126.989 58.3218C125.54 59.4228 122.582 62.0499 123.751 64.5913C124.919 67.1327 123.557 67.5961 123.557 67.5961L126.069 66.6403L127.219 66.1479L127.103 66.9981L132.716 67.1157C132.716 67.1157 134.233 67.1065 131.539 63.0574C131.539 63.0574 130.888 61.5392 131.422 60.3793C131.851 59.5009 132.064 58.5332 132.044 57.5561C131.875 53.4739 130.155 45.1689 118.557 48.7251Z" fill="#2F2E41"/>
<path d="M39.8119 165.006C39.8119 165.006 39.8119 191.272 33.7837 198.161C33.7837 198.161 32.492 201.605 32.0614 202.897C31.8206 203.633 31.533 204.352 31.2002 205.05V206.772C31.2002 206.772 19.5745 205.481 18.2827 202.467L20.4357 199.883C20.4357 199.883 20.8662 199.453 20.4357 198.161C20.0051 196.869 21.2968 196.869 21.2968 196.869L24.3109 189.98L23.8803 161.561L26.0332 122.378L44.5483 121.517L39.8119 165.006Z" fill="#2F2E41"/>
<path d="M30.339 204.189C30.339 204.189 33.3531 213.231 30.339 213.662C27.325 214.092 1.05942 214.523 1.49001 211.078C1.92059 207.634 10.5322 208.064 10.5322 208.064L19.5745 202.467L30.339 204.189Z" fill="#2F2E41"/>
<path d="M57.0352 122.378C57.0352 122.378 57.8963 127.976 54.4517 134.004C51.007 140.032 53.1599 160.27 53.1599 160.27L83.7313 186.966C83.7313 186.966 77.7031 197.3 75.5502 196.869C73.3973 196.439 39.3813 168.881 39.3813 168.881L26.0332 124.101L57.0352 122.378Z" fill="#2F2E41"/>
<path d="M83.3112 185.825C83.3112 185.825 92.5621 188.12 91.3122 190.896C90.0623 193.672 76.3648 216.088 73.6859 213.88C71.0069 211.672 75.9808 204.629 75.9808 204.629L76.0937 193.995L83.3112 185.825Z" fill="#2F2E41"/>
<path d="M50.1458 42.2906C50.1492 44.559 49.3694 46.7591 47.9382 48.519C46.8065 49.9216 45.3126 50.9878 43.6184 51.6023C41.9241 52.2168 40.0941 52.3561 38.3264 52.0052C37.4412 51.8341 36.5846 51.5393 35.7816 51.1295C34.5063 50.4867 33.3852 49.5756 32.4954 48.4586C31.6055 47.3416 30.9678 46.0453 30.6263 44.6586C30.4338 43.884 30.3372 43.0888 30.3385 42.2906C30.3385 39.664 31.3819 37.145 33.2392 35.2877C35.0965 33.4304 37.6155 32.387 40.2422 32.387C42.8688 32.387 45.3878 33.4304 47.2451 35.2877C49.1024 37.145 50.1458 39.664 50.1458 42.2906V42.2906Z" fill="#A0616A"/>
<path d="M48.0346 45.7842L47.5966 58.528L39.2636 61.8205C39.2636 61.8205 38.4464 48.7716 37.2929 48.0482C36.1393 47.3248 48.0346 45.7842 48.0346 45.7842Z" fill="#A0616A"/>
<path d="M37.2284 63.3885C37.2284 63.3885 48.8541 51.7627 51.8682 52.1933C54.8822 52.6239 54.8822 53.9157 54.8822 54.7768C54.8822 55.638 54.0211 56.0686 54.8822 56.4992C55.7434 56.9297 56.6046 56.4992 56.6046 57.7909C56.6046 59.0826 64.3551 72.0001 61.7716 86.2093C59.1881 100.419 56.174 107.308 57.4657 115.058C58.7575 122.809 57.8963 124.531 57.8963 124.531C57.8963 124.531 25.6026 127.115 25.1721 124.101C24.7415 121.087 26.4638 122.809 24.3109 120.656C22.158 118.503 23.0191 118.503 23.0191 117.211C23.0191 115.92 32.4919 63.3885 37.2284 63.3885Z" fill="#575A89"/>
<path d="M43.2565 121.948C43.2565 121.948 38.0895 134.435 34.2143 131.421C30.339 128.406 35.9366 118.072 35.9366 118.072L43.2565 121.948Z" fill="white"/>
<path d="M55.7434 64.2496C55.7434 64.2496 65.86 65.4079 62.0934 83.9897C58.3269 102.572 43.6871 124.101 43.6871 124.101L33.7837 119.364L46.7012 93.9598L43.6871 78.0283C43.6871 78.0283 41.9648 62.9579 55.7434 64.2496Z" fill="#575A89"/>
<path opacity="0.2" d="M46.9166 94.1752L32.7072 117.857L33.999 119.149L46.9166 94.1752Z" fill="black"/>
<path opacity="0.2" d="M54.4376 105.211L43.0412 123.885H46.9166L54.4376 105.211Z" fill="black"/>
<path opacity="0.2" d="M28.6944 139.147L28.122 139.366L39.4527 169.074L40.0252 168.856L28.6944 139.147Z" fill="black"/>
<path d="M37.2894 65.7526C37.6277 65.7526 37.902 65.4784 37.902 65.1401C37.902 64.8018 37.6277 64.5275 37.2894 64.5275C36.9511 64.5275 36.6769 64.8018 36.6769 65.1401C36.6769 65.4784 36.9511 65.7526 37.2894 65.7526Z" fill="#D0CDE1"/>
<path d="M32.0829 82.291C32.1483 82.291 32.212 82.2701 32.2647 82.2312C32.3173 82.1923 32.3561 82.1376 32.3754 82.0751L37.5819 65.2306C37.5939 65.1921 37.5982 65.1517 37.5945 65.1116C37.5908 65.0715 37.5793 65.0325 37.5605 64.9969C37.5418 64.9613 37.5162 64.9297 37.4852 64.904C37.4543 64.8783 37.4185 64.8589 37.3801 64.847C37.3416 64.8351 37.3012 64.8309 37.2611 64.8347C37.221 64.8384 37.1821 64.85 37.1465 64.8689C37.1109 64.8877 37.0794 64.9133 37.0537 64.9443C37.028 64.9753 37.0087 65.0111 36.9969 65.0496L31.7904 81.8945C31.7763 81.9403 31.7731 81.9887 31.7812 82.036C31.7892 82.0832 31.8082 82.1279 31.8367 82.1665C31.8651 82.205 31.9022 82.2364 31.945 82.258C31.9877 82.2797 32.0349 82.291 32.0829 82.291V82.291Z" fill="#D0CDE1"/>
<path d="M38.2565 49.8757L35.7816 52.2301C33.2328 50.9474 30.7708 47.4912 30.076 44.6587L33.3232 43.2979C33.5352 46.1869 35.5859 48.1076 38.2565 49.8757Z" fill="white"/>
<path d="M38.8736 44.5312C38.8638 44.5312 38.854 44.5306 38.8443 44.5292L33.0887 43.707C33.062 43.7032 33.0363 43.6942 33.013 43.6804C32.9898 43.6667 32.9695 43.6485 32.9533 43.6269C32.9371 43.6053 32.9252 43.5808 32.9185 43.5546C32.9118 43.5285 32.9103 43.5013 32.9141 43.4745C32.9179 43.4478 32.9269 43.4221 32.9406 43.3988C32.9544 43.3756 32.9726 43.3553 32.9942 43.3391C33.0157 43.3229 33.0403 43.311 33.0664 43.3043C33.0926 43.2976 33.1198 43.2961 33.1465 43.2999L38.9021 44.1221C38.9536 44.1294 39.0004 44.1559 39.0331 44.1963C39.0658 44.2368 39.0819 44.2881 39.0783 44.3399C39.0747 44.3918 39.0516 44.4404 39.0136 44.4759C38.9756 44.5113 38.9256 44.5311 38.8736 44.5312V44.5312Z" fill="white"/>
<path d="M38.051 49.8756C38.0151 49.8757 37.9798 49.8663 37.9486 49.8485C37.9175 49.8306 37.8916 49.8049 37.8734 49.7739C37.8553 49.7429 37.8456 49.7077 37.8454 49.6718C37.8451 49.6359 37.8542 49.6006 37.8719 49.5693L39.7789 46.1744C39.7921 46.1508 39.8098 46.1301 39.831 46.1133C39.8523 46.0966 39.8766 46.0842 39.9026 46.0769C39.9286 46.0696 39.9558 46.0674 39.9827 46.0707C40.0095 46.0739 40.0355 46.0823 40.059 46.0956C40.0826 46.1089 40.1033 46.1266 40.12 46.1479C40.1367 46.1692 40.149 46.1936 40.1562 46.2196C40.1635 46.2457 40.1655 46.2729 40.1622 46.2997C40.1589 46.3265 40.1504 46.3525 40.137 46.376L38.23 49.7709C38.2122 49.8027 38.1862 49.8291 38.1547 49.8476C38.1232 49.866 38.0874 49.8757 38.051 49.8756V49.8756Z" fill="white"/>
<path d="M44.7248 48.2408C43.9231 47.8169 42.9918 47.7295 42.124 47.4661C39.0193 46.5234 36.9394 43.0137 37.6035 39.8377C37.7262 39.4303 37.7812 39.0056 37.7665 38.5804C37.6504 37.6398 36.688 37.0329 35.765 36.8173C34.8421 36.6018 33.8601 36.6331 32.978 36.2866C31.6159 35.7515 30.7112 34.3517 30.5151 32.9016C30.3189 31.4514 30.7492 29.9724 31.4491 28.6872L31.7825 29.6465C32.2909 29.2161 32.6683 28.6517 32.8718 28.0174C33.2506 28.081 33.6068 28.2409 33.9062 28.4817C34.2056 28.7224 34.4382 29.036 34.5816 29.3924C35.1168 29.7079 35.1938 28.4121 35.7849 28.2209C36.0324 28.1409 36.2869 28.2929 36.5227 28.4029C37.7137 28.9584 39.0975 28.4834 40.3752 28.1755C42.5876 27.6448 44.8938 27.6421 47.1074 28.1676C48.5781 28.5184 50.0338 29.1292 51.0861 30.2148C51.9504 31.1063 52.4889 32.2591 52.9474 33.413C54.0761 36.2536 54.8217 39.3272 54.4491 42.361C54.1388 44.8437 53.1002 47.1788 51.4642 49.0718C50.612 50.0537 47.8316 53.4792 46.307 52.8952C44.3914 52.1614 46.9819 49.4342 44.7248 48.2408Z" fill="#2F2E41"/>
</g>
<defs>
<clipPath id="clip0">
<rect width="250" height="214.033" fill="white"/>
</clipPath>
</defs>
</svg>
