<svg width="10" height="10" viewBox="0 0 808 808" fill="none" xmlns="http://www.w3.org/2000/svg">
<path d="M617.334 404C617.334 361.807 604.822 320.561 581.381 285.478C557.939 250.396 524.621 223.052 485.64 206.906C446.658 190.759 403.764 186.534 362.381 194.766C320.998 202.997 282.986 223.315 253.151 253.151C223.316 282.986 202.998 320.998 194.766 362.381C186.535 403.763 190.759 446.658 206.906 485.639C223.053 524.621 250.396 557.939 285.479 581.38C320.561 604.822 361.807 617.333 404 617.333" stroke="#28F9C7" stroke-width="40" stroke-linecap="round" stroke-linejoin="round"/>
<path d="M361.333 20H446.666M404 190.667V20V190.667Z" stroke="#28F9C7" stroke-width="40" stroke-linecap="round" stroke-linejoin="round"/>
<path d="M645.366 102.304L705.696 162.635M554.87 253.131L675.531 132.469L554.87 253.131Z" stroke="#28F9C7" stroke-width="40" stroke-linecap="round" stroke-linejoin="round"/>
<path d="M788 361.333V446.667M617.333 404H788H617.333Z" stroke="#28F9C7" stroke-width="40" stroke-linecap="round" stroke-linejoin="round"/>
<path d="M446.666 788H361.333M404 617.333V788V617.333Z" stroke="#28F9C7" stroke-width="40" stroke-linecap="round" stroke-linejoin="round"/>
<path d="M162.634 705.696L102.346 645.365M253.13 554.869L132.469 675.531L253.13 554.869Z" stroke="#28F9C7" stroke-width="40" stroke-linecap="round" stroke-linejoin="round"/>
<path d="M20 446.667V361.333M190.667 404H20H190.667Z" stroke="#28F9C7" stroke-width="40" stroke-linecap="round" stroke-linejoin="round"/>
<path d="M102.303 162.634L162.634 102.346M253.13 253.13L132.469 132.469L253.13 253.13Z" stroke="#28F9C7" stroke-width="40" stroke-linecap="round" stroke-linejoin="round"/>
<path d="M703 708H708V703V401V396H703H404H399V401V703V708H404H703ZM686.885 684.926H420.115V419.074H686.885V684.926Z" fill="#28F9C7" stroke="#28F9C7" stroke-width="10"/>
<mask id="path-10-inside-1" fill="white">
<path d="M404 414.054H703V438.858H404V414.054Z"/>
</mask>
<path d="M404 414.054H703V438.858H404V414.054Z" fill="#28F9C7"/>
<path d="M404 414.054V364.054H354V414.054H404ZM703 414.054H753V364.054H703V414.054ZM703 438.858V488.858H753V438.858H703ZM404 438.858H354V488.858H404V438.858ZM404 464.054H703V364.054H404V464.054ZM653 414.054V438.858H753V414.054H653ZM703 388.858H404V488.858H703V388.858ZM454 438.858V414.054H354V438.858H454Z" fill="#28F9C7" mask="url(#path-10-inside-1)"/>
<mask id="path-12-inside-2" fill="white">
<path d="M502.181 466.272H592.959V479.326H502.181V466.272Z"/>
</mask>
<path d="M502.181 466.272H592.959V479.326H502.181V466.272Z" fill="#28F9C7"/>
<path d="M502.181 466.272V416.272H452.181V466.272H502.181ZM592.959 466.272H642.959V416.272H592.959V466.272ZM592.959 479.326V529.326H642.959V479.326H592.959ZM502.181 479.326H452.181V529.326H502.181V479.326ZM502.181 516.272H592.959V416.272H502.181V516.272ZM542.959 466.272V479.326H642.959V466.272H542.959ZM592.959 429.326H502.181V529.326H592.959V429.326ZM552.181 479.326V466.272H452.181V479.326H552.181Z" fill="#28F9C7" mask="url(#path-12-inside-2)"/>
<mask id="path-14-inside-3" fill="white">
<path d="M502.181 499.991H641.121V513.046H502.181V499.991Z"/>
</mask>
<path d="M502.181 499.991H641.121V513.046H502.181V499.991Z" fill="#28F9C7"/>
<path d="M502.181 499.991V449.991H452.181V499.991H502.181ZM641.121 499.991H691.121V449.991H641.121V499.991ZM641.121 513.046V563.046H691.121V513.046H641.121ZM502.181 513.046H452.181V563.046H502.181V513.046ZM502.181 549.991H641.121V449.991H502.181V549.991ZM591.121 499.991V513.046H691.121V499.991H591.121ZM641.121 463.046H502.181V563.046H641.121V463.046ZM552.181 513.046V499.991H452.181V513.046H552.181Z" fill="#28F9C7" mask="url(#path-14-inside-3)"/>
<mask id="path-16-inside-4" fill="white">
<path d="M502.181 534.807H620.191V547.862H502.181V534.807Z"/>
</mask>
<path d="M502.181 534.807H620.191V547.862H502.181V534.807Z" fill="#28F9C7"/>
<path d="M502.181 534.807V484.807H452.181V534.807H502.181ZM620.191 534.807H670.191V484.807H620.191V534.807ZM620.191 547.862V597.862H670.191V547.862H620.191ZM502.181 547.862H452.181V597.862H502.181V547.862ZM502.181 584.807H620.191V484.807H502.181V584.807ZM570.191 534.807V547.862H670.191V534.807H570.191ZM620.191 497.862H502.181V597.862H620.191V497.862ZM552.181 547.862V534.807H452.181V547.862H552.181Z" fill="#28F9C7" mask="url(#path-16-inside-4)"/>
<mask id="path-18-inside-5" fill="white">
<path d="M502.181 571.791H659.65V584.845H502.181V571.791Z"/>
</mask>
<path d="M502.181 571.791H659.65V584.845H502.181V571.791Z" fill="#28F9C7"/>
<path d="M502.181 571.791V521.791H452.181V571.791H502.181ZM659.65 571.791H709.65V521.791H659.65V571.791ZM659.65 584.845V634.845H709.65V584.845H659.65ZM502.181 584.845H452.181V634.845H502.181V584.845ZM502.181 621.791H659.65V521.791H502.181V621.791ZM609.65 571.791V584.845H709.65V571.791H609.65ZM659.65 534.845H502.181V634.845H659.65V534.845ZM552.181 584.845V571.791H452.181V584.845H552.181Z" fill="#28F9C7" mask="url(#path-18-inside-5)"/>
<mask id="path-20-inside-6" fill="white">
<path d="M502.181 609.87H611.488V622.924H502.181V609.87Z"/>
</mask>
<path d="M502.181 609.87H611.488V622.924H502.181V609.87Z" fill="#28F9C7"/>
<path d="M502.181 609.87V559.87H452.181V609.87H502.181ZM611.488 609.87H661.488V559.87H611.488V609.87ZM611.488 622.924V672.924H661.488V622.924H611.488ZM502.181 622.924H452.181V672.924H502.181V622.924ZM502.181 659.87H611.488V559.87H502.181V659.87ZM561.488 609.87V622.924H661.488V609.87H561.488ZM611.488 572.924H502.181V672.924H611.488V572.924ZM552.181 622.924V609.87H452.181V622.924H552.181Z" fill="#28F9C7" mask="url(#path-20-inside-6)"/>
<mask id="path-22-inside-7" fill="white">
<path d="M504.037 643.59H639.276V656.644H504.037V643.59Z"/>
</mask>
<path d="M504.037 643.59H639.276V656.644H504.037V643.59Z" fill="#28F9C7"/>
<path d="M504.037 643.59V593.59H454.037V643.59H504.037ZM639.276 643.59H689.276V593.59H639.276V643.59ZM639.276 656.644V706.644H689.276V656.644H639.276ZM504.037 656.644H454.037V706.644H504.037V656.644ZM504.037 693.59H639.276V593.59H504.037V693.59ZM589.276 643.59V656.644H689.276V643.59H589.276ZM639.276 606.644H504.037V706.644H639.276V606.644ZM554.037 656.644V643.59H454.037V656.644H554.037Z" fill="#28F9C7" mask="url(#path-22-inside-7)"/>
<mask id="path-24-inside-8" fill="white">
<path d="M437.346 466.272H485.508V479.326H437.346V466.272Z"/>
</mask>
<path d="M437.346 466.272H485.508V479.326H437.346V466.272Z" fill="#28F9C7"/>
<path d="M437.346 466.272V416.272H387.346V466.272H437.346ZM485.508 466.272H535.508V416.272H485.508V466.272ZM485.508 479.326V529.326H535.508V479.326H485.508ZM437.346 479.326H387.346V529.326H437.346V479.326ZM437.346 516.272H485.508V416.272H437.346V516.272ZM435.508 466.272V479.326H535.508V466.272H435.508ZM485.508 429.326H437.346V529.326H485.508V429.326ZM487.346 479.326V466.272H387.346V479.326H487.346Z" fill="#28F9C7" mask="url(#path-24-inside-8)"/>
<mask id="path-26-inside-9" fill="white">
<path d="M437.346 499.991H485.508V513.046H437.346V499.991Z"/>
</mask>
<path d="M437.346 499.991H485.508V513.046H437.346V499.991Z" fill="#28F9C7"/>
<path d="M437.346 499.991V449.991H387.346V499.991H437.346ZM485.508 499.991H535.508V449.991H485.508V499.991ZM485.508 513.046V563.046H535.508V513.046H485.508ZM437.346 513.046H387.346V563.046H437.346V513.046ZM437.346 549.991H485.508V449.991H437.346V549.991ZM435.508 499.991V513.046H535.508V499.991H435.508ZM485.508 463.046H437.346V563.046H485.508V463.046ZM487.346 513.046V499.991H387.346V513.046H487.346Z" fill="#28F9C7" mask="url(#path-26-inside-9)"/>
<mask id="path-28-inside-10" fill="white">
<path d="M437.346 499.991H485.508V513.046H437.346V499.991Z"/>
</mask>
<path d="M437.346 499.991H485.508V513.046H437.346V499.991Z" fill="#28F9C7"/>
<path d="M437.346 499.991V449.991H387.346V499.991H437.346ZM485.508 499.991H535.508V449.991H485.508V499.991ZM485.508 513.046V563.046H535.508V513.046H485.508ZM437.346 513.046H387.346V563.046H437.346V513.046ZM437.346 549.991H485.508V449.991H437.346V549.991ZM435.508 499.991V513.046H535.508V499.991H435.508ZM485.508 463.046H437.346V563.046H485.508V463.046ZM487.346 513.046V499.991H387.346V513.046H487.346Z" fill="#28F9C7" mask="url(#path-28-inside-10)"/>
<mask id="path-30-inside-11" fill="white">
<path d="M437.346 533.724H485.508V546.778H437.346V533.724Z"/>
</mask>
<path d="M437.346 533.724H485.508V546.778H437.346V533.724Z" fill="#28F9C7"/>
<path d="M437.346 533.724V483.724H387.346V533.724H437.346ZM485.508 533.724H535.508V483.724H485.508V533.724ZM485.508 546.778V596.778H535.508V546.778H485.508ZM437.346 546.778H387.346V596.778H437.346V546.778ZM437.346 583.724H485.508V483.724H437.346V583.724ZM435.508 533.724V546.778H535.508V533.724H435.508ZM485.508 496.778H437.346V596.778H485.508V496.778ZM487.346 546.778V533.724H387.346V546.778H487.346Z" fill="#28F9C7" mask="url(#path-30-inside-11)"/>
<mask id="path-32-inside-12" fill="white">
<path d="M437.346 567.443H485.508V580.498H437.346V567.443Z"/>
</mask>
<path d="M437.346 567.443H485.508V580.498H437.346V567.443Z" fill="#28F9C7"/>
<path d="M437.346 567.443V517.443H387.346V567.443H437.346ZM485.508 567.443H535.508V517.443H485.508V567.443ZM485.508 580.498V630.498H535.508V580.498H485.508ZM437.346 580.498H387.346V630.498H437.346V580.498ZM437.346 617.443H485.508V517.443H437.346V617.443ZM435.508 567.443V580.498H535.508V567.443H435.508ZM485.508 530.498H437.346V630.498H485.508V530.498ZM487.346 580.498V567.443H387.346V580.498H487.346Z" fill="#28F9C7" mask="url(#path-32-inside-12)"/>
<mask id="path-34-inside-13" fill="white">
<path d="M437.346 609.87H485.508V622.924H437.346V609.87Z"/>
</mask>
<path d="M437.346 609.87H485.508V622.924H437.346V609.87Z" fill="#28F9C7"/>
<path d="M437.346 609.87V559.87H387.346V609.87H437.346ZM485.508 609.87H535.508V559.87H485.508V609.87ZM485.508 622.924V672.924H535.508V622.924H485.508ZM437.346 622.924H387.346V672.924H437.346V622.924ZM437.346 659.87H485.508V559.87H437.346V659.87ZM435.508 609.87V622.924H535.508V609.87H435.508ZM485.508 572.924H437.346V672.924H485.508V572.924ZM487.346 622.924V609.87H387.346V622.924H487.346Z" fill="#28F9C7" mask="url(#path-34-inside-13)"/>
<mask id="path-36-inside-14" fill="white">
<path d="M437.346 643.59H485.508V656.644H437.346V643.59Z"/>
</mask>
<path d="M437.346 643.59H485.508V656.644H437.346V643.59Z" fill="#28F9C7"/>
<path d="M437.346 643.59V593.59H387.346V643.59H437.346ZM485.508 643.59H535.508V593.59H485.508V643.59ZM485.508 656.644V706.644H535.508V656.644H485.508ZM437.346 656.644H387.346V706.644H437.346V656.644ZM437.346 693.59H485.508V593.59H437.346V693.59ZM435.508 643.59V656.644H535.508V643.59H435.508ZM485.508 606.644H437.346V706.644H485.508V606.644ZM487.346 656.644V643.59H387.346V656.644H487.346Z" fill="#28F9C7" mask="url(#path-36-inside-14)"/>
</svg>
