<svg width="220" height="220" viewBox="0 0 220 220" fill="none" xmlns="http://www.w3.org/2000/svg">
<path d="M165.556 110C165.556 99.0122 162.297 88.2711 156.193 79.135C150.088 69.9989 141.412 62.8782 131.26 58.6734C121.109 54.4685 109.939 53.3683 99.1618 55.5119C88.3851 57.6556 78.486 62.9467 70.7164 70.7163C62.9468 78.4859 57.6557 88.385 55.512 99.1617C53.3684 109.938 54.4686 121.109 58.6735 131.26C62.8783 141.412 69.999 150.088 79.1351 156.193C88.2712 162.297 99.0123 165.556 110 165.556" stroke="#28F9C7" stroke-width="20" stroke-linecap="round" stroke-linejoin="round"/>
<path d="M98.8889 10H121.111M110 54.4444V10V54.4444Z" stroke="#28F9C7" stroke-width="20" stroke-linecap="round" stroke-linejoin="round"/>
<path d="M172.856 31.4333L188.567 47.1444M149.289 70.7111L180.711 39.2889L149.289 70.7111Z" stroke="#28F9C7" stroke-width="20" stroke-linecap="round" stroke-linejoin="round"/>
<path d="M210 98.889V121.111M165.556 110H210H165.556Z" stroke="#28F9C7" stroke-width="20" stroke-linecap="round" stroke-linejoin="round"/>
<path d="M121.111 210H98.8889M110 165.556V210V165.556Z" stroke="#28F9C7" stroke-width="20" stroke-linecap="round" stroke-linejoin="round"/>
<path d="M47.1443 188.567L31.4443 172.856M70.711 149.289L39.2888 180.711L70.711 149.289Z" stroke="#28F9C7" stroke-width="20" stroke-linecap="round" stroke-linejoin="round"/>
<path d="M10 121.111V98.889M54.4445 110H10H54.4445Z" stroke="#28F9C7" stroke-width="20" stroke-linecap="round" stroke-linejoin="round"/>
<path d="M31.4331 47.1443L47.1442 31.4443M70.7109 70.711L39.2887 39.2888L70.7109 70.711Z" stroke="#28F9C7" stroke-width="20" stroke-linecap="round" stroke-linejoin="round"/>
<path d="M187.865 188.865H188.865V187.865V109.219V108.219H187.865H110H109V109.219V187.865V188.865H110H187.865ZM183.97 183.46H113.895V113.623H183.97V183.46Z" fill="#28F9C7" stroke="#28F9C7" stroke-width="2"/>
<mask id="path-10-inside-1" fill="white">
<path d="M110 112.618H187.865V119.078H110V112.618Z"/>
</mask>
<path d="M110 112.618H187.865V119.078H110V112.618Z" fill="#28F9C7"/>
<path d="M110 112.618V62.6184H60.0001V112.618H110ZM187.865 112.618H237.865V62.6184H187.865V112.618ZM187.865 119.078V169.078H237.865V119.078H187.865ZM110 119.078H60.0001V169.078H110V119.078ZM110 162.618H187.865V62.6184H110V162.618ZM137.865 112.618V119.078H237.865V112.618H137.865ZM187.865 69.0776H110V169.078H187.865V69.0776ZM160 119.078V112.618H60.0001V119.078H160Z" fill="#28F9C7" mask="url(#path-10-inside-1)"/>
<mask id="path-12-inside-2" fill="white">
<path d="M135.568 126.217H159.208V129.616H135.568V126.217Z"/>
</mask>
<path d="M135.568 126.217H159.208V129.616H135.568V126.217Z" fill="#28F9C7"/>
<path d="M135.568 126.217V76.2167H85.568V126.217H135.568ZM159.208 126.217H209.208V76.2167H159.208V126.217ZM159.208 129.616V179.616H209.208V129.616H159.208ZM135.568 129.616H85.568V179.616H135.568V129.616ZM135.568 176.217H159.208V76.2167H135.568V176.217ZM109.208 126.217V129.616H209.208V126.217H109.208ZM159.208 79.6163H135.568V179.616H159.208V79.6163ZM185.568 129.616V126.217H85.568V129.616H185.568Z" fill="#28F9C7" mask="url(#path-12-inside-2)"/>
<mask id="path-14-inside-3" fill="white">
<path d="M135.568 134.998H171.75V138.397H135.568V134.998Z"/>
</mask>
<path d="M135.568 134.998H171.75V138.397H135.568V134.998Z" fill="#28F9C7"/>
<path d="M135.568 134.998V84.9978H85.568V134.998H135.568ZM171.75 134.998H221.75V84.9978H171.75V134.998ZM171.75 138.397V188.397H221.75V138.397H171.75ZM135.568 138.397H85.568V188.397H135.568V138.397ZM135.568 184.998H171.75V84.9978H135.568V184.998ZM121.75 134.998V138.397H221.75V134.998H121.75ZM171.75 88.3974H135.568V188.397H171.75V88.3974ZM185.568 138.397V134.998H85.568V138.397H185.568Z" fill="#28F9C7" mask="url(#path-14-inside-3)"/>
<mask id="path-16-inside-4" fill="white">
<path d="M135.568 144.064H166.3V147.464H135.568V144.064Z"/>
</mask>
<path d="M135.568 144.064H166.3V147.464H135.568V144.064Z" fill="#28F9C7"/>
<path d="M135.568 144.064V94.0645H85.568V144.064H135.568ZM166.3 144.064H216.3V94.0645H166.3V144.064ZM166.3 147.464V197.464H216.3V147.464H166.3ZM135.568 147.464H85.568V197.464H135.568V147.464ZM135.568 194.064H166.3V94.0645H135.568V194.064ZM116.3 144.064V147.464H216.3V144.064H116.3ZM166.3 97.4641H135.568V197.464H166.3V97.4641ZM185.568 147.464V144.064H85.568V147.464H185.568Z" fill="#28F9C7" mask="url(#path-16-inside-4)"/>
<mask id="path-18-inside-5" fill="white">
<path d="M135.568 153.695H176.576V157.095H135.568V153.695Z"/>
</mask>
<path d="M135.568 153.695H176.576V157.095H135.568V153.695Z" fill="#28F9C7"/>
<path d="M135.568 153.695V103.695H85.568V153.695H135.568ZM176.576 153.695H226.576V103.695H176.576V153.695ZM176.576 157.095V207.095H226.576V157.095H176.576ZM135.568 157.095H85.568V207.095H135.568V157.095ZM135.568 203.695H176.576V103.695H135.568V203.695ZM126.576 153.695V157.095H226.576V153.695H126.576ZM176.576 107.095H135.568V207.095H176.576V107.095ZM185.568 157.095V153.695H85.568V157.095H185.568Z" fill="#28F9C7" mask="url(#path-18-inside-5)"/>
<mask id="path-20-inside-6" fill="white">
<path d="M135.568 163.612H164.033V167.012H135.568V163.612Z"/>
</mask>
<path d="M135.568 163.612H164.033V167.012H135.568V163.612Z" fill="#28F9C7"/>
<path d="M135.568 163.612V113.612H85.568V163.612H135.568ZM164.033 163.612H214.033V113.612H164.033V163.612ZM164.033 167.012V217.012H214.033V167.012H164.033ZM135.568 167.012H85.568V217.012H135.568V167.012ZM135.568 213.612H164.033V113.612H135.568V213.612ZM114.033 163.612V167.012H214.033V163.612H114.033ZM164.033 117.012H135.568V217.012H164.033V117.012ZM185.568 167.012V163.612H85.568V167.012H185.568Z" fill="#28F9C7" mask="url(#path-20-inside-6)"/>
<mask id="path-22-inside-7" fill="white">
<path d="M136.051 172.393H171.27V175.793H136.051V172.393Z"/>
</mask>
<path d="M136.051 172.393H171.27V175.793H136.051V172.393Z" fill="#28F9C7"/>
<path d="M136.051 172.393V122.393H86.0515V172.393H136.051ZM171.27 172.393H221.27V122.393H171.27V172.393ZM171.27 175.793V225.793H221.27V175.793H171.27ZM136.051 175.793H86.0515V225.793H136.051V175.793ZM136.051 222.393H171.27V122.393H136.051V222.393ZM121.27 172.393V175.793H221.27V172.393H121.27ZM171.27 125.793H136.051V225.793H171.27V125.793ZM186.051 175.793V172.393H86.0515V175.793H186.051Z" fill="#28F9C7" mask="url(#path-22-inside-7)"/>
<mask id="path-24-inside-8" fill="white">
<path d="M118.684 126.217H131.226V129.616H118.684V126.217Z"/>
</mask>
<path d="M118.684 126.217H131.226V129.616H118.684V126.217Z" fill="#28F9C7"/>
<path d="M118.684 126.217V76.2167H68.6839V126.217H118.684ZM131.226 126.217H181.226V76.2167H131.226V126.217ZM131.226 129.616V179.616H181.226V129.616H131.226ZM118.684 129.616H68.6839V179.616H118.684V129.616ZM118.684 176.217H131.226V76.2167H118.684V176.217ZM81.2262 126.217V129.616H181.226V126.217H81.2262ZM131.226 79.6163H118.684V179.616H131.226V79.6163ZM168.684 129.616V126.217H68.6839V129.616H168.684Z" fill="#28F9C7" mask="url(#path-24-inside-8)"/>
<mask id="path-26-inside-9" fill="white">
<path d="M118.684 134.998H131.226V138.397H118.684V134.998Z"/>
</mask>
<path d="M118.684 134.998H131.226V138.397H118.684V134.998Z" fill="#28F9C7"/>
<path d="M118.684 134.998V84.9978H68.6839V134.998H118.684ZM131.226 134.998H181.226V84.9978H131.226V134.998ZM131.226 138.397V188.397H181.226V138.397H131.226ZM118.684 138.397H68.6839V188.397H118.684V138.397ZM118.684 184.998H131.226V84.9978H118.684V184.998ZM81.2262 134.998V138.397H181.226V134.998H81.2262ZM131.226 88.3974H118.684V188.397H131.226V88.3974ZM168.684 138.397V134.998H68.6839V138.397H168.684Z" fill="#28F9C7" mask="url(#path-26-inside-9)"/>
<mask id="path-28-inside-10" fill="white">
<path d="M118.684 134.998H131.226V138.397H118.684V134.998Z"/>
</mask>
<path d="M118.684 134.998H131.226V138.397H118.684V134.998Z" fill="#28F9C7"/>
<path d="M118.684 134.998V84.9978H68.6839V134.998H118.684ZM131.226 134.998H181.226V84.9978H131.226V134.998ZM131.226 138.397V188.397H181.226V138.397H131.226ZM118.684 138.397H68.6839V188.397H118.684V138.397ZM118.684 184.998H131.226V84.9978H118.684V184.998ZM81.2262 134.998V138.397H181.226V134.998H81.2262ZM131.226 88.3974H118.684V188.397H131.226V88.3974ZM168.684 138.397V134.998H68.6839V138.397H168.684Z" fill="#28F9C7" mask="url(#path-28-inside-10)"/>
<mask id="path-30-inside-11" fill="white">
<path d="M118.684 143.782H131.226V147.182H118.684V143.782Z"/>
</mask>
<path d="M118.684 143.782H131.226V147.182H118.684V143.782Z" fill="#28F9C7"/>
<path d="M118.684 143.782V93.7823H68.6839V143.782H118.684ZM131.226 143.782H181.226V93.7823H131.226V143.782ZM131.226 147.182V197.182H181.226V147.182H131.226ZM118.684 147.182H68.6839V197.182H118.684V147.182ZM118.684 193.782H131.226V93.7823H118.684V193.782ZM81.2262 143.782V147.182H181.226V143.782H81.2262ZM131.226 97.1819H118.684V197.182H131.226V97.1819ZM168.684 147.182V143.782H68.6839V147.182H168.684Z" fill="#28F9C7" mask="url(#path-30-inside-11)"/>
<mask id="path-32-inside-12" fill="white">
<path d="M118.684 152.563H131.226V155.963H118.684V152.563Z"/>
</mask>
<path d="M118.684 152.563H131.226V155.963H118.684V152.563Z" fill="#28F9C7"/>
<path d="M118.684 152.563V102.563H68.6839V152.563H118.684ZM131.226 152.563H181.226V102.563H131.226V152.563ZM131.226 155.963V205.963H181.226V155.963H131.226ZM118.684 155.963H68.6839V205.963H118.684V155.963ZM118.684 202.563H131.226V102.563H118.684V202.563ZM81.2262 152.563V155.963H181.226V152.563H81.2262ZM131.226 105.963H118.684V205.963H131.226V105.963ZM168.684 155.963V152.563H68.6839V155.963H168.684Z" fill="#28F9C7" mask="url(#path-32-inside-12)"/>
<mask id="path-34-inside-13" fill="white">
<path d="M118.684 163.612H131.226V167.012H118.684V163.612Z"/>
</mask>
<path d="M118.684 163.612H131.226V167.012H118.684V163.612Z" fill="#28F9C7"/>
<path d="M118.684 163.612V113.612H68.6839V163.612H118.684ZM131.226 163.612H181.226V113.612H131.226V163.612ZM131.226 167.012V217.012H181.226V167.012H131.226ZM118.684 167.012H68.6839V217.012H118.684V167.012ZM118.684 213.612H131.226V113.612H118.684V213.612ZM81.2262 163.612V167.012H181.226V163.612H81.2262ZM131.226 117.012H118.684V217.012H131.226V117.012ZM168.684 167.012V163.612H68.6839V167.012H168.684Z" fill="#28F9C7" mask="url(#path-34-inside-13)"/>
<mask id="path-36-inside-14" fill="white">
<path d="M118.684 172.393H131.226V175.793H118.684V172.393Z"/>
</mask>
<path d="M118.684 172.393H131.226V175.793H118.684V172.393Z" fill="#28F9C7"/>
<path d="M118.684 172.393V122.393H68.6839V172.393H118.684ZM131.226 172.393H181.226V122.393H131.226V172.393ZM131.226 175.793V225.793H181.226V175.793H131.226ZM118.684 175.793H68.6839V225.793H118.684V175.793ZM118.684 222.393H131.226V122.393H118.684V222.393ZM81.2262 172.393V175.793H181.226V172.393H81.2262ZM131.226 125.793H118.684V225.793H131.226V125.793ZM168.684 175.793V172.393H68.6839V175.793H168.684Z" fill="#28F9C7" mask="url(#path-36-inside-14)"/>
</svg>
