<svg width="130" height="200" viewBox="0 0 130 200" fill="none" xmlns="http://www.w3.org/2000/svg">
<g clip-path="url(#clip0)">
<path opacity="0.2" d="M129.15 76.7574L127.181 76.7507L119.629 76.7278L117.952 76.7245L112.865 76.7114L111.607 76.7047H111.05L84.8158 76.6326L84.3989 76.6292H84.0017L82.4068 76.6228L77.9037 76.6128L75.7309 76.6064L71.2214 76.5933V11.2795L126.853 6.36645L128.822 6.19238L129.15 76.7574Z" fill="black"/>
<path d="M127.181 76.7508V76.7573L121.667 76.7409L119.629 76.7344L117.952 76.7311L115.543 76.7245L114.581 76.7212L112.868 76.7179L111.978 76.7147H111.607L111.059 76.7114H111.05L106.911 76.7015L106.163 76.6983L95.5515 76.6687L93.6446 76.6621L85.8628 76.6392L84.8158 76.6359H84.3957C84.3976 76.6342 84.3987 76.6318 84.399 76.6293H84.0018L82.4067 76.6228L77.9037 76.6129V76.6162L75.731 76.6096L74.2376 76.6063H73.9028L69.2521 76.5932V11.2796L126.853 6.19238V6.36632L127.181 76.7508Z" fill="#E6E6E6"/>
<path opacity="0.2" d="M98.1345 5.04381C99.4034 5.04381 100.432 4.0152 100.432 2.74635C100.432 1.47749 99.4034 0.448883 98.1345 0.448883C96.8656 0.448883 95.837 1.47749 95.837 2.74635C95.837 4.0152 96.8656 5.04381 98.1345 5.04381Z" fill="black"/>
<path d="M96.8217 5.04381C98.0905 5.04381 99.1191 4.0152 99.1191 2.74635C99.1191 1.47749 98.0905 0.448883 96.8217 0.448883C95.5528 0.448883 94.5242 1.47749 94.5242 2.74635C94.5242 4.0152 95.5528 5.04381 96.8217 5.04381Z" fill="#3F3D56"/>
<path opacity="0.2" d="M116.024 -2.472e-06L80.0358 2.87535L80.2449 5.49268L116.233 2.61733L116.024 -2.472e-06Z" fill="black"/>
<path d="M114.711 -2.54165e-06L78.723 2.87535L78.9321 5.49268L114.92 2.61733L114.711 -2.54165e-06Z" fill="#E6E6E6"/>
<path opacity="0.56" d="M118.093 62.1825C116.164 54.87 115.136 54.3055 115.136 54.3055L104.253 48.8277L104.181 48.8014L98.0628 53.3143L95.4273 49.2576L95.296 49.1428C95.296 49.1428 95.2402 49.1657 95.1319 49.2084C94.1867 49.5891 89.3193 51.601 85.7057 53.9937L85.5942 53.9773L81.3307 56.0975L80.566 58.9234L79.6831 62.1825L76.6439 76.302V76.3053L78.8166 76.3119V76.3086L83.3197 76.3185L84.0286 72.8395L84.9148 76.325H85.3119C85.3116 76.3275 85.3105 76.3299 85.3086 76.3316H85.7287L86.7757 76.3349L94.5575 76.3578L96.4644 76.3644L107.075 76.394L107.824 76.3972L111.962 76.4071H111.972L112.52 76.4104V76.4005L112.803 73.3252L112.973 72.4653L113.777 76.4071L113.781 76.4136L115.494 76.4169L116.456 76.4202L118.865 76.4268L120.542 76.43V76.4235C120.079 73.2957 118.802 64.8738 118.093 62.1825Z" fill="#28F9C7"/>
<path opacity="0.56" d="M108.647 40.5064L108.651 40.5211C108.646 40.522 108.645 40.517 108.647 40.5064C108.604 40.3565 108.054 38.5869 106.481 39.4975C104.838 40.4479 102.876 34.4811 102.876 34.4811C102.876 34.4811 97.9326 35.8418 94.9151 35.6334C94.7104 35.6187 94.5095 35.5703 94.3205 35.4903C93.6297 36.9209 93.3983 38.5302 93.6579 40.0975C93.9175 41.6648 94.6554 43.1134 95.7706 44.2449L95.2379 48.9937L97.9767 53.2541L104.063 48.6894C104.063 48.6894 104.14 49.8512 104.389 45.8721C105.568 45.3455 106.596 44.5311 107.378 43.5038C108.161 42.4764 108.672 41.269 108.866 39.9924C108.743 40.273 108.657 40.4555 108.647 40.5064Z" fill="#FFB8B8"/>
<path opacity="0.56" d="M108.866 40.2967C109.538 38.7672 111.34 34.2652 108.176 31.5526C105.558 29.3084 96.3221 27.3055 93.3704 33.2638C93.2583 33.491 93.1941 33.7388 93.1815 33.9918C93.169 34.2449 93.2085 34.4978 93.2975 34.7349C93.3866 34.9721 93.5233 35.1885 93.6992 35.3708C93.8752 35.5531 94.0866 35.6973 94.3205 35.7946C94.3632 35.7066 94.4115 35.6218 94.4573 35.5356C94.6051 35.5878 94.7589 35.6206 94.9151 35.6334C97.9326 35.8418 102.876 34.4811 102.876 34.4811C102.876 34.4811 104.838 40.4479 106.481 39.4975C108.054 38.5869 108.604 40.3565 108.647 40.5064C108.657 40.4555 108.743 40.273 108.866 39.9924C108.916 39.652 108.943 39.3086 108.947 38.9646C108.948 39.0251 108.952 39.0852 108.952 39.146C108.952 39.5312 108.923 39.9158 108.866 40.2967V40.2967Z" fill="#2F2E41"/>
<path d="M50.5442 200C78.459 200 101.088 196.473 101.088 192.123C101.088 187.773 78.459 184.246 50.5442 184.246C22.6294 184.246 0 187.773 0 192.123C0 196.473 22.6294 200 50.5442 200Z" fill="#E6E6E6"/>
<path d="M128.494 176.205L117.499 188.933L117.295 189.169L52.8417 179.323V105.804H128.33L128.494 176.205Z" fill="#3F3D56"/>
<path d="M59.2663 133.539L59.2172 134.193L72.3455 135.178L72.3946 134.523L59.2663 133.539Z" fill="#E6E6E6"/>
<path d="M91.4296 136.492L91.3829 137.147L105.168 138.132L105.214 137.477L91.4296 136.492Z" fill="#E6E6E6"/>
<path d="M117.355 126.318L52.6975 122.379L52.6576 123.034L82.2176 124.835L82.7203 183.94L83.3767 183.934L82.8746 124.875L117.315 126.973L117.355 126.318Z" fill="#E6E6E6"/>
<path opacity="0.2" d="M128.494 176.205L117.499 188.933V105.804H128.33L128.494 176.205Z" fill="black"/>
<path d="M57.2725 107.281H51.3647V103.342L67.1188 100.389L68.1034 98.4193L129.807 100.06V105.64L117.499 110.133L109.458 109.907C109.458 109.907 97.314 120.081 82.8728 119.096C68.4316 118.112 57.2725 107.281 57.2725 107.281Z" fill="#E6E6E6"/>
<path d="M110.935 103.507L107.488 105.968L97.8358 105.735C97.8358 105.738 97.8326 105.735 97.8326 105.735H97.8162L97.0809 105.719H97.0777L96.4672 105.702L94.5406 105.656L94.3798 105.653L92.6764 105.614L92.614 105.61L90.4971 105.561L90.3592 105.558L88.7937 105.518L88.541 105.515L86.703 105.469L86.1122 105.456L82.8071 105.377L81.9735 105.358L73.1906 105.148C73.1906 105.148 66.9317 105.459 66.6363 103.641C66.6296 103.597 66.6263 103.552 66.6264 103.507C66.6264 102.473 67.7161 102.253 68.7467 102.279C69.3591 102.302 69.968 102.383 70.5649 102.522L73.0856 102.584L74.6577 102.62L79.5907 102.742L83.8082 102.844L85.3015 102.883L87.4382 102.935L88.2849 102.955L91.4292 103.031L92.8996 103.067L96.0044 103.142L110.935 103.507Z" fill="#CCCCCC"/>
<path d="M92.555 105.148C92.9175 105.148 93.2114 104.854 93.2114 104.491C93.2114 104.129 92.9175 103.835 92.555 103.835C92.1924 103.835 91.8985 104.129 91.8985 104.491C91.8985 104.854 92.1924 105.148 92.555 105.148Z" fill="#3F3D56"/>
<path d="M92.8832 102.85C96.3272 102.85 99.1191 102.556 99.1191 102.194C99.1191 101.831 96.3272 101.537 92.8832 101.537C89.4391 101.537 86.6472 101.831 86.6472 102.194C86.6472 102.556 89.4391 102.85 92.8832 102.85Z" fill="#CCCCCC"/>
<path d="M88.9803 93.8511L94.4221 95.1774L93.8003 97.7284L85.9933 95.8256L86.0386 95.6398C86.1915 95.0125 86.5874 94.4717 87.139 94.1362C87.6907 93.8008 88.353 93.6982 88.9803 93.8511Z" fill="#3F3D56"/>
<path d="M86.9252 95.9097L89.8463 96.3486L89.8321 96.4431C89.7841 96.7624 89.6113 97.0495 89.3516 97.2413C89.092 97.4331 88.7668 97.514 88.4475 97.466L87.9339 97.3888C87.6146 97.3408 87.3275 97.168 87.1357 96.9083C86.9439 96.6487 86.8631 96.3235 86.911 96.0042L86.9252 95.9097L86.9252 95.9097Z" fill="#3F3D56"/>
<path opacity="0.2" d="M93.8003 97.072L89.7191 96.0772C89.5969 96.3263 89.3987 96.5301 89.1532 96.6592C88.9076 96.7882 88.6274 96.8359 88.353 96.7953L88.0284 96.7466C87.7092 96.698 87.4191 96.533 87.2142 96.2834C87.0093 96.0338 86.9039 95.7172 86.9184 95.3946L86.2233 95.2252C86.1223 95.4151 86.0451 95.6168 85.9934 95.8256L86.9184 96.051C86.9039 96.3737 87.0093 96.6902 87.2142 96.9398C87.4191 97.1894 87.7092 97.3544 88.0284 97.403L88.353 97.4518C88.6274 97.4923 88.9076 97.4446 89.1532 97.3156C89.3987 97.1865 89.5969 96.9827 89.7191 96.7337L93.8003 97.7284L94.4221 95.1774L94.271 95.1406L93.8003 97.072Z" fill="black"/>
<path d="M93.112 102.522C92.7866 102.522 92.4647 102.456 92.1657 102.327C91.8668 102.199 91.5972 102.011 91.3732 101.775C91.1493 101.539 90.9757 101.26 90.8632 100.954C90.7506 100.649 90.7014 100.324 90.7185 99.9991L91.078 93.168L95.5089 93.0039V100.125C95.5089 100.44 95.4469 100.752 95.3264 101.042C95.206 101.333 95.0294 101.597 94.8068 101.82C94.5843 102.042 94.3201 102.219 94.0293 102.339C93.7385 102.46 93.4268 102.522 93.112 102.522Z" fill="#3F3D56"/>
<path d="M95.1806 93.168H91.1903C91.8822 92.1181 91.4507 91.0425 90.4821 89.9546C90.4265 89.8916 90.3903 89.8138 90.3778 89.7308C90.3653 89.6477 90.3771 89.5627 90.4117 89.4862C90.4463 89.4096 90.5022 89.3446 90.5728 89.2991C90.6434 89.2536 90.7257 89.2294 90.8097 89.2294H92.3304C93.9046 89.2294 95.1806 90.6989 95.1806 92.5115V93.168Z" fill="#3F3D56"/>
<path opacity="0.2" d="M91.7949 89.9546C91.7393 89.8916 91.7031 89.8138 91.6906 89.7307C91.6782 89.6477 91.6899 89.5627 91.7245 89.4862C91.7591 89.4096 91.8151 89.3446 91.8857 89.2991C91.9563 89.2536 92.0385 89.2294 92.1226 89.2294H90.8097C90.7257 89.2294 90.6434 89.2536 90.5728 89.2991C90.5022 89.3446 90.4463 89.4096 90.4117 89.4862C90.3771 89.5627 90.3653 89.6477 90.3778 89.7307C90.3903 89.8138 90.4265 89.8916 90.4821 89.9546C91.4507 91.0425 91.8822 92.1181 91.1903 93.1679H92.5032C93.1951 92.1181 92.7635 91.0425 91.7949 89.9546Z" fill="black"/>
<path d="M72.8579 97.0367L77.9055 98.8207C77.9055 98.8207 89.9122 99.7785 88.3543 102.833C86.7964 105.887 76.5203 103.914 76.5203 103.914L71.6535 100.535L72.8579 97.0367Z" fill="#FFB8B8"/>
<path d="M80.4112 101.537C80.0753 101.538 79.7524 101.667 79.5093 101.899C79.2662 102.131 79.1215 102.447 79.1052 102.783C79.0318 102.716 78.9485 102.66 78.8583 102.617C79.1062 102.449 79.2891 102.2 79.3767 101.914C79.4644 101.627 79.4516 101.319 79.3405 101.04C79.2293 100.762 79.0265 100.53 78.7654 100.382C78.5044 100.235 78.2009 100.181 77.905 100.229C77.6091 100.278 77.3386 100.426 77.1382 100.649C76.9379 100.872 76.8196 101.156 76.8029 101.456C76.7863 101.755 76.8723 102.051 77.0468 102.295C77.2213 102.539 77.4737 102.716 77.7624 102.797C77.6503 102.904 77.5651 103.036 77.5137 103.182C77.4624 103.328 77.4463 103.484 77.4668 103.638C77.4874 103.792 77.544 103.938 77.632 104.066C77.72 104.194 77.8369 104.299 77.9732 104.372C78.1095 104.446 78.2613 104.487 78.4163 104.491C78.5713 104.495 78.725 104.462 78.8649 104.395C79.0048 104.329 79.127 104.23 79.2214 104.107C79.3159 103.984 79.3799 103.84 79.4083 103.688C79.5497 103.857 79.7316 103.988 79.937 104.068C80.1425 104.148 80.3648 104.176 80.5835 104.147C80.8022 104.118 81.0101 104.035 81.188 103.905C81.3659 103.774 81.5081 103.601 81.6013 103.401C81.6945 103.202 81.7357 102.981 81.7212 102.761C81.7067 102.541 81.6369 102.328 81.5182 102.143C81.3995 101.957 81.2359 101.804 81.0424 101.698C80.8489 101.592 80.6318 101.537 80.4112 101.537V101.537Z" fill="white"/>
<path d="M82.7087 102.194C82.3727 102.194 82.0499 102.324 81.8068 102.556C81.5637 102.787 81.419 103.104 81.4026 103.439C81.3292 103.372 81.246 103.316 81.1557 103.274C81.4036 103.105 81.5865 102.857 81.6742 102.57C81.7618 102.283 81.7491 101.975 81.6379 101.697C81.5267 101.418 81.3239 101.186 81.0629 101.039C80.8019 100.891 80.4983 100.837 80.2024 100.886C79.9066 100.934 79.6361 101.082 79.4357 101.305C79.2353 101.528 79.117 101.813 79.1004 102.112C79.0838 102.411 79.1698 102.707 79.3443 102.951C79.5187 103.195 79.7712 103.372 80.0599 103.453C79.9478 103.56 79.8625 103.692 79.8112 103.838C79.7598 103.985 79.7437 104.141 79.7643 104.295C79.7848 104.448 79.8414 104.595 79.9294 104.722C80.0174 104.85 80.1343 104.955 80.2706 105.029C80.407 105.103 80.5588 105.143 80.7138 105.147C80.8687 105.151 81.0224 105.119 81.1623 105.052C81.3023 104.985 81.4244 104.886 81.5189 104.763C81.6133 104.64 81.6773 104.497 81.7057 104.344C81.8472 104.514 82.029 104.644 82.2345 104.725C82.4399 104.805 82.6623 104.832 82.8809 104.803C83.0996 104.775 83.3075 104.691 83.4854 104.561C83.6634 104.431 83.8055 104.258 83.8987 104.058C83.9919 103.858 84.0332 103.638 84.0186 103.418C84.0041 103.198 83.9343 102.985 83.8156 102.799C83.697 102.613 83.5333 102.46 83.3398 102.354C83.1463 102.249 82.9292 102.193 82.7087 102.194V102.194Z" fill="white"/>
<path d="M76.5318 96.8931L71.9631 104.439L62.3564 97.9894L51.322 90.5849L44.6692 73.1177L37.9049 60.731L46.3825 58.2334C46.3825 58.2334 49.3003 58.345 53.0714 65.2669C56.8392 72.1921 60.1968 84.1783 60.1968 84.1783L64.7031 87.6869L76.5318 96.8931Z" fill="#28F9C7"/>
<path opacity="0.2" d="M76.5318 96.8931L71.9631 104.439L62.3564 97.9894L51.322 90.5849L44.6692 73.1177L37.9049 60.731L46.3825 58.2334C46.3825 58.2334 49.3003 58.345 53.0714 65.2669C56.8392 72.1921 60.1968 84.1783 60.1968 84.1783L64.7031 87.6869L76.5318 96.8931Z" fill="black"/>
<path d="M97.8162 105.735L86.1122 105.456L85.1834 104.403L84.527 103.657L83.8082 102.844L83.0106 101.941L84.3694 99.8339L85.016 98.8295L87.6351 100.549L89.4928 101.767C89.4928 101.767 91.0485 102.286 92.8996 103.067C94.6194 103.795 96.5985 104.754 97.8162 105.735Z" fill="#FFB8B8"/>
<path d="M52.5173 45.6007C56.9496 45.6007 60.5427 42.0076 60.5427 37.5753C60.5427 33.1429 56.9496 29.5498 52.5173 29.5498C48.0849 29.5498 44.4918 33.1429 44.4918 37.5753C44.4918 42.0076 48.0849 45.6007 52.5173 45.6007Z" fill="#FFB8B8"/>
<path d="M46.2976 39.7822L45.495 51.4191L55.5268 52.6229C55.5268 52.6229 55.5268 42.9924 56.3293 41.7886C57.1319 40.5848 46.2976 39.7822 46.2976 39.7822Z" fill="#FFB8B8"/>
<path d="M68.5681 54.8299L55.5739 49.3271C55.5739 49.3271 49.3666 44.5375 45.7254 48.0786L44.0906 50.4159C44.0906 50.4159 34.1338 55.769 34.1338 60.1829L35.2626 82.5177C35.2626 82.5177 32.0524 94.9571 36.8677 95.7596L62.9503 98.1673C62.9503 98.1673 66.5618 93.7533 63.3516 88.1355L64.5554 74.8935L68.5681 54.8299Z" fill="#28F9C7"/>
<path d="M59.7401 55.2312L68.5681 54.8299C68.5681 54.8299 69.215 55.5127 71.2214 63.1368C73.2277 70.761 75.791 83.3202 75.791 83.3202L88.6164 99.568L82.3805 105.804L65.6418 87.4243L63.3516 68.8744L59.7401 55.2312Z" fill="#28F9C7"/>
<path d="M64.1541 97.3647L35.304 94.8263C35.304 94.8263 32.4537 113.014 32.855 120.237C33.2562 127.46 33.6575 138.696 33.6575 138.696L30.4473 187.651L42.8868 186.046L44.4918 145.517L49.7083 123.447L55.7274 151.536L59.7401 187.651L70.5745 186.447L66.963 142.708C66.963 142.708 70.1732 103.384 64.1541 97.3647Z" fill="#2F2E41"/>
<path d="M68.1668 184.441L71.7783 185.644C71.7783 185.644 79.4024 183.638 77.3961 188.855C75.3897 194.071 69.7719 193.269 69.7719 193.269C69.7719 193.269 62.9503 198.485 60.1414 194.472L61.7465 186.046L68.1668 184.441Z" fill="#2F2E41"/>
<path d="M38.874 184.441L42.4855 185.644C42.4855 185.644 50.1096 183.638 48.1033 188.855C46.0969 194.071 40.4791 193.269 40.4791 193.269C40.4791 193.269 33.6575 198.485 30.8486 194.472L32.4537 186.046L38.874 184.441Z" fill="#2F2E41"/>
<path d="M46.2976 44.5975C46.2976 44.5975 37.8708 38.5784 42.2848 31.3555C45.347 26.3447 51.6923 26.7413 55.2916 27.4543C56.2613 27.6333 57.173 28.0454 57.948 28.6551C58.7229 29.2649 59.338 30.0539 59.7401 30.9543C60.342 32.3587 60.342 33.7632 57.9344 33.7632C53.1191 33.7632 55.5268 37.3746 55.5268 37.3746C55.5268 37.3746 52.3166 38.1772 53.1191 40.9861C53.9217 43.795 46.2976 44.5975 46.2976 44.5975Z" fill="#2F2E41"/>
<path d="M97.4781 105.804C98.0219 105.804 98.4627 105.363 98.4627 104.819C98.4627 104.276 98.0219 103.835 97.4781 103.835C96.9343 103.835 96.4935 104.276 96.4935 104.819C96.4935 105.363 96.9343 105.804 97.4781 105.804Z" fill="white"/>
<path d="M96.4935 104.163C96.4939 103.967 96.4502 103.773 96.3655 103.597C96.2808 103.42 96.1574 103.265 96.0044 103.142C95.771 102.954 95.4804 102.851 95.1806 102.85C95.1642 102.85 95.1511 102.853 95.1347 102.853C95.0684 102.59 94.9221 102.355 94.7158 102.178C94.5096 102.002 94.2537 101.895 93.9836 101.871C93.7135 101.847 93.4426 101.907 93.2084 102.044C92.9742 102.18 92.7882 102.386 92.6764 102.633C92.4683 102.524 92.2278 102.494 91.9991 102.548C91.7705 102.603 91.5692 102.738 91.4325 102.929C90.4661 102.806 89.5197 102.559 88.6165 102.194C88.3701 102.193 88.1286 102.263 87.9201 102.394C87.7116 102.526 87.5445 102.713 87.4382 102.935C87.3487 103.112 87.3026 103.308 87.3036 103.507C87.3047 103.743 87.3706 103.974 87.494 104.176C87.2595 104.209 87.0448 104.325 86.8892 104.504C86.7337 104.682 86.6477 104.911 86.6472 105.148C86.647 105.257 86.6659 105.366 86.703 105.469L88.541 105.515C88.5664 105.455 88.5851 105.392 88.5968 105.328C88.6558 105.398 88.7218 105.462 88.7937 105.518L90.3592 105.558L90.4479 105.489C90.4624 105.514 90.4788 105.538 90.4971 105.561L92.614 105.61C92.6271 105.596 92.6391 105.58 92.6501 105.564C92.6576 105.581 92.6664 105.598 92.6764 105.614L94.3798 105.653C94.4481 105.541 94.4927 105.416 94.5111 105.285C94.5202 105.292 94.5301 105.298 94.5406 105.302C94.5303 105.359 94.5248 105.417 94.5242 105.476C94.5246 105.536 94.5301 105.597 94.5406 105.656L96.4672 105.702C96.4844 105.628 96.4932 105.552 96.4935 105.476C96.4922 105.257 96.4183 105.044 96.2834 104.872C96.4204 104.661 96.4933 104.415 96.4935 104.163V104.163ZM92.9783 104.137C92.922 104.205 92.8569 104.266 92.7847 104.317C92.8044 104.366 92.8142 104.419 92.8307 104.468C92.9135 104.38 93.0127 104.309 93.1227 104.258C93.0717 104.221 93.0234 104.181 92.9783 104.137V104.137Z" fill="white"/>
<path d="M106.34 106.132C106.884 106.132 107.324 105.691 107.324 105.148C107.324 104.604 106.884 104.163 106.34 104.163C105.796 104.163 105.355 104.604 105.355 105.148C105.355 105.691 105.796 106.132 106.34 106.132Z" fill="white"/>
<path d="M105.355 104.491C105.356 104.295 105.312 104.102 105.227 103.925C105.142 103.748 105.019 103.593 104.866 103.47C104.633 103.282 104.342 103.179 104.042 103.178C104.026 103.178 104.013 103.182 103.996 103.182C103.93 102.919 103.784 102.683 103.578 102.507C103.371 102.331 103.115 102.223 102.845 102.199C102.575 102.175 102.304 102.235 102.07 102.372C101.836 102.509 101.65 102.715 101.538 102.962C101.33 102.852 101.089 102.822 100.861 102.876C100.632 102.931 100.431 103.066 100.294 103.257C99.3278 103.134 98.3814 102.887 97.4781 102.522C97.2317 102.522 96.9903 102.591 96.7818 102.722C96.5732 102.854 96.4062 103.041 96.2998 103.264C96.2103 103.441 96.1642 103.636 96.1653 103.835C96.1664 104.071 96.2322 104.303 96.3557 104.504C96.1212 104.537 95.9064 104.653 95.7509 104.832C95.5953 105.01 95.5094 105.239 95.5089 105.476C95.5087 105.585 95.5276 105.694 95.5646 105.797L97.4026 105.843C97.4281 105.783 97.4468 105.721 97.4584 105.656C97.5174 105.726 97.5834 105.79 97.6553 105.847L99.2209 105.886L99.3095 105.817C99.324 105.842 99.3405 105.867 99.3588 105.889L101.476 105.939C101.489 105.924 101.501 105.909 101.512 105.893C101.519 105.91 101.528 105.926 101.538 105.942L103.241 105.981C103.31 105.869 103.354 105.744 103.373 105.614C103.382 105.62 103.392 105.626 103.402 105.63C103.392 105.687 103.386 105.746 103.386 105.804C103.386 105.865 103.392 105.925 103.402 105.984L105.329 106.03C105.346 105.956 105.355 105.88 105.355 105.804C105.354 105.585 105.28 105.373 105.145 105.2C105.282 104.989 105.355 104.743 105.355 104.491V104.491ZM101.84 104.465C101.784 104.533 101.719 104.594 101.646 104.645C101.666 104.695 101.676 104.747 101.692 104.796C101.775 104.708 101.874 104.637 101.984 104.586C101.933 104.549 101.885 104.509 101.84 104.465H101.84Z" fill="white"/>
<path d="M92.1447 105.476C92.5525 105.476 92.8832 105.145 92.8832 104.737C92.8832 104.329 92.5525 103.999 92.1447 103.999C91.7368 103.999 91.4062 104.329 91.4062 104.737C91.4062 105.145 91.7368 105.476 92.1447 105.476Z" fill="white"/>
<path d="M91.4062 104.245C91.4065 104.098 91.3737 103.953 91.3102 103.82C91.2467 103.688 91.1542 103.571 91.0394 103.479C90.8644 103.338 90.6465 103.261 90.4216 103.26C90.4093 103.26 90.3994 103.263 90.3871 103.263C90.3374 103.066 90.2277 102.889 90.073 102.757C89.9183 102.625 89.7264 102.544 89.5238 102.526C89.3212 102.508 89.1181 102.553 88.9424 102.656C88.7667 102.758 88.6273 102.913 88.5434 103.098C88.3874 103.016 88.2069 102.993 88.0355 103.034C87.864 103.075 87.713 103.176 87.6105 103.319C86.8857 103.227 86.1759 103.042 85.4984 102.768C85.3136 102.768 85.1326 102.82 84.9762 102.918C84.8198 103.017 84.6945 103.158 84.6147 103.324C84.5476 103.457 84.513 103.604 84.5138 103.753C84.5147 103.93 84.564 104.104 84.6566 104.255C84.4807 104.279 84.3197 104.367 84.203 104.501C84.0863 104.634 84.0219 104.806 84.0215 104.983C84.0214 105.066 84.0355 105.147 84.0633 105.225L85.4418 105.259C85.4609 105.214 85.475 105.167 85.4837 105.119C85.5279 105.171 85.5774 105.219 85.6314 105.262L86.8055 105.291L86.872 105.239C86.8829 105.258 86.8952 105.277 86.9089 105.294L88.4966 105.331C88.5064 105.32 88.5155 105.308 88.5237 105.296C88.5293 105.309 88.5359 105.321 88.5434 105.333L89.821 105.363C89.8722 105.278 89.9057 105.184 89.9194 105.087C89.9263 105.092 89.9337 105.096 89.9416 105.099C89.9338 105.142 89.9297 105.186 89.9293 105.23C89.9296 105.275 89.9337 105.32 89.9416 105.365L91.3865 105.399C91.3994 105.344 91.406 105.287 91.4062 105.23C91.4053 105.065 91.3498 104.906 91.2487 104.777C91.3514 104.618 91.4061 104.434 91.4062 104.245V104.245ZM88.7699 104.225C88.7277 104.277 88.6788 104.322 88.6247 104.361C88.6394 104.398 88.6468 104.437 88.6591 104.474C88.7212 104.408 88.7957 104.354 88.8782 104.316C88.8399 104.289 88.8037 104.258 88.7699 104.225V104.225Z" fill="white"/>
<path d="M81.642 105.476C82.0498 105.476 82.3805 105.145 82.3805 104.737C82.3805 104.329 82.0498 103.999 81.642 103.999C81.2342 103.999 80.9035 104.329 80.9035 104.737C80.9035 105.145 81.2342 105.476 81.642 105.476Z" fill="white"/>
<path d="M80.9035 104.245C80.9039 104.098 80.8711 103.953 80.8076 103.82C80.7441 103.688 80.6515 103.571 80.5368 103.479C80.3617 103.338 80.1438 103.261 79.9189 103.26C79.9066 103.26 79.8968 103.263 79.8845 103.263C79.8348 103.066 79.725 102.889 79.5703 102.757C79.4156 102.625 79.2237 102.544 79.0212 102.526C78.8186 102.508 78.6154 102.553 78.4397 102.656C78.264 102.758 78.1246 102.913 78.0407 103.098C77.8847 103.016 77.7043 102.993 77.5328 103.034C77.3613 103.075 77.2103 103.176 77.1078 103.319C76.383 103.227 75.6732 103.042 74.9958 102.768C74.811 102.768 74.6299 102.82 74.4735 102.918C74.3171 103.017 74.1918 103.158 74.1121 103.324C74.0449 103.457 74.0103 103.604 74.0111 103.753C74.012 103.93 74.0613 104.104 74.1539 104.255C73.9781 104.279 73.817 104.367 73.7003 104.501C73.5837 104.634 73.5192 104.806 73.5188 104.983C73.5187 105.066 73.5329 105.147 73.5607 105.225L74.9391 105.259C74.9582 105.214 74.9723 105.167 74.981 105.119C75.0253 105.171 75.0747 105.219 75.1287 105.262L76.3029 105.291L76.3693 105.239C76.3802 105.258 76.3925 105.277 76.4062 105.294L77.994 105.331C78.0037 105.32 78.0128 105.308 78.021 105.296C78.0266 105.309 78.0332 105.321 78.0407 105.333L79.3183 105.363C79.3695 105.278 79.403 105.184 79.4168 105.087C79.4236 105.092 79.431 105.096 79.4389 105.099C79.4312 105.142 79.427 105.186 79.4266 105.23C79.4269 105.275 79.431 105.32 79.4389 105.365L80.8839 105.399C80.8968 105.344 80.9034 105.287 80.9035 105.23C80.9026 105.065 80.8472 104.906 80.746 104.777C80.8487 104.618 80.9034 104.434 80.9035 104.245V104.245ZM78.2672 104.225C78.225 104.277 78.1761 104.322 78.122 104.361C78.1367 104.398 78.1441 104.437 78.1564 104.474C78.2186 104.408 78.293 104.354 78.3755 104.316C78.3372 104.289 78.301 104.258 78.2672 104.225V104.225Z" fill="white"/>
<path d="M116.104 94.7891V92.8199H114.463V93.1481C114.282 93.1481 114.135 93.3685 114.135 93.6404C114.135 93.9123 114.282 94.1327 114.463 94.1327V94.7891H113.15V101.353H117.417V94.7891H116.104Z" fill="#3F3D56"/>
</g>
<defs>
<clipPath id="clip0">
<rect width="129.807" height="200" fill="white"/>
</clipPath>
</defs>
</svg>
